<svg width="500" height="500" viewBox="0 0 500 500" fill="none" xmlns="http://www.w3.org/2000/svg">
<path d="M242.6 404L15 269.5C7.80002 265.4 1.50003 258.8 8.60003 254.4L237 122.7C240.4 120.6 245.6 119.2 249.1 121.2L488 259.9C495.2 264.1 496.5 275.9 489.3 280.1L272.5 403.7C263.3 409.1 251.9 409.2 242.6 404Z" fill="#B095FE"/>
<path d="M196.7 180.7L50.3 213.3V256.4L107.5 290.7L196.7 238.4V180.7Z" fill="#FD68A7"/>
<path opacity="0.81" d="M197.2 180.6L106.6 243L50.3 213.3L92.8 190.1" fill="#3099AA"/>
<path d="M39.7 204.4L93.7 235.6C110.2 233 126.1 227.4 140.6 219.1C164.7 205.3 198 179.7 198 179.7L148.4 151L78.2 192.4C78.2 192.4 58.8 201.8 39.7 204.4Z" fill="#FD68A7"/>
<path d="M94.5 234.1L94.3 234L44.2 205.1L45.7 204.8C58.4 201.8 70.8 197.5 82.6 192L146.3 154.4L192.2 181L191.5 181.5C191.2 181.7 161.1 204.8 139.5 217.2C117.9 229.6 95 234 94.7 234.1H94.5ZM47.4 205.6L94.7 232.9C97 232.4 118.6 227.7 139 216.1C158.7 204.8 185.6 184.5 190.2 181L146.4 155.6L83.2 193C71.7 198.3 59.7 202.5 47.4 205.6Z" fill="#2E3192"/>
<path opacity="0.54" d="M106.6 243V290.7L196.7 238.4L198 179.6L106.6 243Z" fill="#3099AA"/>
<path opacity="0.54" d="M106.6 243V290.7L196.7 238.4L198 179.6L106.6 243Z" fill="#3099AA"/>
<path opacity="0.5" d="M111.4 182.8L144.8 162L181.3 181.3C181.3 181.3 143.2 204.4 140.3 206C137.4 207.6 105.7 225 91.8 224.3L60 206.6L111.4 182.8Z" fill="white"/>
<path opacity="0.54" d="M122.4 211.8C138.306 211.8 151.2 205.577 151.2 197.9C151.2 190.223 138.306 184 122.4 184C106.494 184 93.6 190.223 93.6 197.9C93.6 205.577 106.494 211.8 122.4 211.8Z" fill="#3099AA"/>
<path opacity="0.68" d="M50.3 222.3C59.8 227.4 69.2 232.5 78.7 237.7C88.1 242.8 97.5 248 106.9 253.3H106.3L128.8 238.6L151.4 224L174 209.4C181.6 204.6 189.1 199.8 196.7 195C189.3 200 181.8 205 174.4 210L152 224.9L129.5 239.7L107 254.3L106.7 254.5L106.4 254.3C97 249 87.7 243.7 78.3 238.4C68.9 233.1 59.6 227.7 50.3 222.3Z" fill="#3099AA"/>
<path opacity="0.68" d="M50.3 233.6C59.8 238.7 69.2 243.8 78.6 249C88 254.2 97.4 259.3 106.8 264.6H106.2L128.7 249.9L151.3 235.3L174 220.8C181.6 216 189.1 211.2 196.7 206.4C189.3 211.4 181.8 216.4 174.4 221.4L152 236.2L129.5 251L107 265.6L106.7 265.8L106.4 265.6C97 260.4 87.7 255.1 78.3 249.7C68.9 244.4 59.6 239 50.3 233.6Z" fill="#3099AA"/>
<path opacity="0.68" d="M50.5 242.3C60 247.4 69.4 252.5 78.9 257.7C88.3 262.9 97.7 268.1 107.1 273.3H106.5L129 258.6L151.6 244L174.2 229.5C181.8 224.7 189.3 219.9 196.9 215.1C189.5 220.1 182 225.1 174.6 230.1L152.2 244.9L129.7 259.7L107.1 274.3L106.8 274.5L106.5 274.3C97.1 269.1 87.8 263.8 78.4 258.4C69.2 253 59.9 247.7 50.5 242.3Z" fill="#3099AA"/>
<path opacity="0.68" d="M50.3 250.8C59.8 255.9 69.2 261 78.6 266.2C88 271.4 97.4 276.6 106.8 281.8H106.2L128.7 267.1L151.3 252.5L174 238C181.6 233.2 189.1 228.4 196.7 223.6C189.3 228.6 181.8 233.6 174.4 238.6L152 253.4L129.5 268L107 282.7L106.7 282.9L106.4 282.7C97 277.5 87.7 272.2 78.3 266.8C68.9 261.4 59.6 256.1 50.3 250.8Z" fill="#3099AA"/>
<path d="M84.1 188.8L140.6 219.1V271.3L161.8 258.7V205L106.6 175.6L84.1 188.8Z" fill="white"/>
<path opacity="0.1" d="M140.6 219.1L161.8 205V258.7L140.6 271.3V219.1Z" fill="#2E3192"/>
<path d="M128.5 193.7C129.9 193.8 131.3 194.2 132.5 194.8C133.4 195.2 134.1 195.8 134.6 196.6C135 197.3 135 198.1 134.5 198.8C133.9 199.7 133.1 200.3 132.1 200.8L135.8 202.6L133.7 203.7L129.8 201.8C128 202.5 126.1 202.9 124.1 202.9C122 203 119.9 202.6 118 201.8L122 199.7C122.8 200 123.7 200.2 124.6 200.2C125.2 200.2 125.9 200.2 126.5 200L120.8 197.2C119.2 197.6 117.8 198 116.6 198.2C115.3 198.4 114.1 198.5 112.8 198.3C111.4 198.2 110 197.8 108.8 197.2C107.9 196.8 107.1 196.2 106.6 195.3C106.3 194.6 106.4 193.8 106.9 193.1C107.4 192.4 108.1 191.8 108.9 191.3L105.2 189.5L107.3 188.4L111.1 190.2C112.9 189.5 114.8 189.1 116.7 189C118.7 188.9 120.7 189.3 122.5 190L118.5 192.1C117.7 191.8 117 191.7 116.2 191.7C115.6 191.7 115 191.7 114.4 191.9L119.9 194.6L120.1 194.5C121.8 194.1 123.2 193.7 124.4 193.5C125.9 193.6 127.2 193.6 128.5 193.7ZM129.8 198.2C129.8 197.7 129.4 197.3 128.6 196.9C127.9 196.5 127 196.4 126.2 196.4C125.4 196.4 124.6 196.5 123.8 196.7L129 199.3C129.5 198.9 129.8 198.6 129.8 198.2ZM117.2 195.6L112.3 193.2C112 193.4 111.7 193.7 111.7 194.1C111.7 194.5 112 194.9 112.8 195.3C113.5 195.6 114.3 195.8 115.1 195.8C115.8 195.8 116.6 195.7 117.2 195.6Z" fill="#2E3192"/>
<path d="M211.3 122L64.9 154.5V197.7L122.1 232L211.3 179.7V122Z" fill="#FD68A7"/>
<path opacity="0.81" d="M211.8 121.9L121.2 184.2L64.9 154.5L107.3 131.4" fill="#3099AA"/>
<path d="M54.3 145.7L108.3 176.9C124.8 174.3 140.7 168.7 155.2 160.4C179.4 146.6 212.6 121 212.6 121L163 92.2L92.8 133.7C92.8 133.6 73.3 143.1 54.3 145.7Z" fill="#FD68A7"/>
<path d="M109.1 175.4L108.9 175.3L58.8 146.4L60.3 146.1C73 143.1 85.4 138.8 97.2 133.3L160.9 95.7L206.8 122.3L206.1 122.8C205.8 123 175.7 146.1 154.1 158.5C140.1 166.3 125 172 109.3 175.5L109.1 175.4ZM62 146.8L109.3 174.2C111.6 173.7 133.2 169 153.5 157.4C173.2 146.1 200.1 125.8 204.7 122.3L160.9 96.9L97.7 134.2C86.3 139.6 74.3 143.8 62 146.8Z" fill="#2E3192"/>
<path opacity="0.54" d="M121.2 184.2V232L211.3 179.7L212.6 120.9L121.2 184.2Z" fill="#3099AA"/>
<path opacity="0.54" d="M121.2 184.2V232L211.3 179.7L212.6 120.9L121.2 184.2Z" fill="#3099AA"/>
<path opacity="0.5" d="M126.1 124.1L159.5 103.3L196 122.6C196 122.6 157.9 145.7 155 147.3C152.1 148.9 120.4 166.3 106.5 165.6L74.7 148L126.1 124.1Z" fill="white"/>
<path opacity="0.54" d="M137 153.1C152.906 153.1 165.8 146.877 165.8 139.2C165.8 131.523 152.906 125.3 137 125.3C121.094 125.3 108.2 131.523 108.2 139.2C108.2 146.877 121.094 153.1 137 153.1Z" fill="#3099AA"/>
<path opacity="0.68" d="M64.9 163.6C74.4 168.7 83.8 173.8 93.2 179C102.6 184.2 112 189.4 121.4 194.6H120.8L143.3 179.9L165.9 165.3L188.5 150.8C196.1 146 203.6 141.2 211.2 136.4C203.8 141.4 196.3 146.4 188.9 151.4L166.5 166.3L144 181.1L121.4 195.8L121.1 196L120.8 195.8C111.4 190.5 102.1 185.2 92.7 179.9C83.3 174.6 74.2 169 64.9 163.6Z" fill="#3099AA"/>
<path opacity="0.68" d="M64.9 174.9C74.4 180 83.8 185.1 93.2 190.3C102.6 195.5 112 200.7 121.4 205.9H120.8L143.3 191.2L165.9 176.6L188.5 162.1C196.1 157.3 203.6 152.5 211.2 147.7C203.8 152.7 196.3 157.7 188.9 162.7L166.5 177.6L144 192.4L121.5 207L121.2 207.2L120.9 207C111.5 201.7 102.2 196.4 92.8 191.1C83.4 185.8 74.2 180.3 64.9 174.9Z" fill="#3099AA"/>
<path opacity="0.68" d="M65.2 183.6C74.7 188.7 84.1 193.8 93.5 199C102.9 204.2 112.3 209.4 121.7 214.6H121.1L143.6 199.9L166.2 185.3L188.8 170.8C196.3 166 203.9 161.2 211.5 156.4C204.1 161.4 196.6 166.4 189.2 171.4L166.8 186.2L144.3 201L121.7 215.6L121.4 215.8L121.1 215.6C111.7 210.4 102.4 205.1 93 199.7C83.8 194.3 74.5 188.9 65.2 183.6Z" fill="#3099AA"/>
<path opacity="0.68" d="M64.9 192C74.4 197.1 83.8 202.2 93.2 207.4C102.6 212.6 112 217.8 121.4 223H120.8L143.3 208.3L165.9 193.7L188.5 179.2C196.1 174.4 203.6 169.6 211.2 164.8C203.8 169.8 196.3 174.8 188.9 179.8L166.5 194.7L144 209.5L121.5 224L121.2 224.2L120.9 224C111.5 218.8 102.2 213.5 92.8 208.1C83.4 202.7 74.2 197.4 64.9 192Z" fill="#3099AA"/>
<path d="M98.7 130.1L155.1 160.3V212.6L176.4 200V146.3L121.2 116.8L98.7 130.1Z" fill="white"/>
<path opacity="0.1" d="M155.1 160.3L176.4 146.3V200L155.1 212.6V160.3Z" fill="#2E3192"/>
<path d="M143.1 135C144.5 135.1 145.9 135.5 147.1 136.1C148 136.5 148.7 137.1 149.2 137.9C149.6 138.6 149.6 139.4 149.1 140.1C148.5 141 147.7 141.6 146.7 142.1L150.5 143.9L148.4 145L144.5 143.1C142.7 143.8 140.8 144.2 138.8 144.2C136.7 144.3 134.6 143.9 132.7 143.1L136.6 141.1C137.4 141.4 138.3 141.6 139.2 141.6C139.9 141.6 140.5 141.6 141.1 141.4L135.4 138.6C133.8 139 132.4 139.4 131.2 139.6C129.9 139.8 128.7 139.9 127.4 139.7C126 139.6 124.6 139.2 123.4 138.6C122.5 138.2 121.7 137.6 121.2 136.7C120.9 136 121 135.1 121.5 134.5C122 133.8 122.7 133.2 123.5 132.7L119.8 130.9L121.9 129.8L125.7 131.6C127.5 130.9 129.4 130.5 131.3 130.4C133.3 130.3 135.3 130.7 137.1 131.4L133.1 133.5C132.3 133.2 131.6 133.1 130.8 133.1C130.2 133.1 129.6 133.1 129.1 133.3L134.6 136L134.8 135.9C136.5 135.5 137.9 135.1 139.1 134.9C140.5 135 141.8 134.9 143.1 135ZM144.4 139.5C144.4 139 144 138.6 143.2 138.2C142.5 137.8 141.6 137.7 140.8 137.7C140 137.7 139.2 137.8 138.4 138L143.6 140.6C144.1 140.2 144.4 139.9 144.4 139.5ZM131.8 136.9L126.9 134.5C126.6 134.7 126.3 135 126.3 135.4C126.3 135.8 126.6 136.2 127.4 136.6C128.1 136.9 128.9 137.1 129.7 137.1C130.5 137.1 131.2 137 131.8 136.9Z" fill="#2E3192"/>
<path d="M73.8 154.8C73.8 154.8 74.4 164.4 67 165C67 165 73.3 167.6 74.4 172.7C74.4 172.7 75.2 165.7 81.6 164.9C76.9 163.9 73.6 159.6 73.8 154.8Z" fill="white"/>
<path d="M191.4 245.1C188.6 245.5 169.2 248.5 164.4 277.4C155.2 333 216.6 377.8 268.2 368.9C276.3 367.5 284.3 363.3 289.6 356.7C293.9 351.3 294.9 343.9 293.5 337.1C289.1 315 267.8 304.3 255.5 287.4C249 278.5 247.6 267.4 240.8 258.8C228.8 243.8 209.2 242.4 191.4 245.1Z" fill="#FFBE30"/>
<path opacity="0.1" d="M198.5 255.8C196.6 256.1 183.8 258 180.6 277.2C174.5 314.1 215.2 343.7 249.3 337.8C254.8 336.9 259.9 334 263.4 329.7C266.2 326.1 266.9 321.2 266 316.7C263.1 302.1 249 295 240.8 283.8C236.5 277.9 235.6 270.5 231.1 264.8C223.3 255 210.3 254 198.5 255.8Z" fill="#2E3192"/>
<path d="M322.7 354.5L314.8 351.3L317.2 338.5L324.6 336.9L322.7 354.5Z" fill="#7C1251"/>
<path d="M206.3 237.4C206.3 237.4 202.1 238.9 201.6 238.9C201.1 238.9 193.7 238.8 194.2 243.2C194.7 247.6 206.3 246.4 206.3 246.4L211.6 240.8" fill="#F7931E"/>
<path d="M191.3 242.7L197.2 240.7C197.2 240.7 204.4 239.1 205.1 240.7C205.8 242.3 203.8 247.4 203.1 247.6L197.6 248.8L192.2 249.4" fill="#F7931E"/>
<path d="M238.2 300.5C238.2 300.5 275 324.7 278.6 325C282.2 325.3 318.5 339.5 318.5 339.5C318.5 339.5 316.7 348.6 317.7 352.9C317.7 352.9 251.3 336.2 243 333.3C234.7 330.4 215.4 311.4 220.4 306.3C225.4 301.2 238.2 300.5 238.2 300.5Z" fill="#FF7B61"/>
<path opacity="0.3" d="M238.2 300.5C238.2 300.5 275 324.7 278.6 325C282.2 325.3 318.5 339.5 318.5 339.5C318.5 339.5 316.7 348.6 317.7 352.9C317.7 352.9 251.3 336.2 243 333.3C234.7 330.4 215.4 311.4 220.4 306.3C225.4 301.2 238.2 300.5 238.2 300.5Z" fill="#2E3192"/>
<path d="M216.9 262.4C219.9 259.5 224.9 246.8 223.7 243.9C222.5 241 214.4 245.8 214.4 245.8L206.3 237.4C206.3 237.4 217.6 228.1 223 226.6C228.4 225.1 232.6 226.8 234.3 233.3C236 239.8 230.4 262.6 231.1 267.5C231.8 272.4 238.2 300.4 238.2 300.4C233 309.3 211.9 313.9 208.9 313.2C205.9 312.5 191 279 191 279C191 279 163 260.7 166.7 252.2C170.4 243.7 186.6 241.3 189.9 240.9C193.2 240.5 195.7 251.2 195.7 251.2C195.7 251.2 185.1 254.2 184.1 255.6C183.1 257 187.8 260.5 196.6 262.4C205.4 264.3 207.4 263.3 207.4 263.3" fill="#FD68A7"/>
<path d="M322.7 354.5C322.7 354.5 322 348.4 321.5 345.6C321 342.8 319.3 327.3 326.3 327.8C333.3 328.3 328.9 343.4 329.1 345.1C329.3 346.8 330 351.5 329 353C328 354.5 325 356 322.7 354.5Z" fill="#7C1251"/>
<path d="M331.6 342.4C331.6 342.4 334.2 344.1 335.9 342.1C337.6 340.1 338.6 323.2 339.9 319.8C341.2 316.4 341.3 310.4 337.2 310.1C333.1 309.8 332.5 311.7 331.7 314.4C330.9 317.1 327.5 325.5 324.5 326.6C321.9 327.4 319.3 328.1 316.7 328.6L317.4 338.5L331.6 342.4Z" fill="#7C1251"/>
<path opacity="0.2" d="M331.6 342.4C331.6 342.4 334.2 344.1 335.9 342.1C337.6 340.1 338.6 323.2 339.9 319.8C341.2 316.4 341.3 310.4 337.2 310.1C333.1 309.8 332.5 311.7 331.7 314.4C330.9 317.1 327.5 325.5 324.5 326.6C321.9 327.4 319.3 328.1 316.7 328.6L317.4 338.5L331.6 342.4Z" fill="white"/>
<path d="M213.8 266.9C213.8 266.9 221 299.6 221.3 300.5C221.6 301.4 228.2 305.2 228.2 305.2L229.7 299.3L215.8 266.3L213.8 266.9Z" fill="#2E3192"/>
<path d="M204.3 263.5C204.3 263.5 213.7 271.7 213.3 271.1C212.9 270.5 215.3 267.3 215.3 267.3L219.5 268.6L214.6 260.1" fill="#2E3192"/>
<path d="M219.3 248.3C219.3 248.3 222.9 261.5 217 264.4C211.1 267.3 207 263 205.1 259C203.2 255 204 245.8 211.6 244.9C218.3 244.1 219.3 248.3 219.3 248.3Z" fill="#F7931E"/>
<path d="M220.4 245.8C221 244.2 221.3 241.3 219.4 240.4C218 239.8 216.3 240.1 215.2 241.2C214.5 240.7 213.8 240.3 212.9 240.1C209.9 239.2 206.6 239.9 204.3 242C204.2 242.1 204.1 242.2 203.9 242.3C203.7 242.4 203.5 242.4 203.3 242.4C198.7 242.5 197.7 247.8 198.5 251.4C199.3 255.2 201.3 258.6 204.1 261.1C205.3 262.1 206.8 262.9 208.3 263.3C208.5 263.4 208.7 263.3 208.7 263.1V263C208.9 262.9 209 262.6 208.8 262.4C208.4 261.6 208.3 260.7 208.4 259.8C208.4 259.7 208.4 259.5 208.3 259.4C208.5 259.2 208.4 259 208.3 258.8C208.2 258.7 208.1 258.7 208 258.7C207 258.8 206 258.4 205.3 257.7C204.9 257.2 204.5 256.3 205.4 256.1C205.7 256 206.1 256.1 206.3 256.3C206.4 256.5 206.6 256.7 206.7 256.9C206.8 257 206.8 257 206.9 257C207.2 257.1 207.6 256.9 207.4 256.5C207.3 256.2 207.1 256 206.9 255.8C206.3 254.8 206.5 253.6 207.3 252.8C208.4 251.8 209.4 252.4 210.6 252.4C211.4 252.5 212.1 252 212.3 251.2C212.3 250.7 212.2 250.1 212.1 249.6C212.1 248.8 212.5 248 213.3 247.7C214.6 247.2 215.5 248.3 216.4 249C217.2 249.6 218.3 249.8 219.3 249.6C220.6 249.3 221.3 247.9 221 246.7C220.9 246.4 220.8 246.1 220.6 245.9C220.7 245.8 220.6 245.7 220.4 245.8ZM212.4 247.6C212.5 247.4 212.8 247.2 213 247.1C213.1 247.1 213.2 247 213.2 247H213.3L213.4 247.1C213.1 247.2 212.7 247.4 212.4 247.6ZM219.9 244.9C219.9 244.8 220 244.6 220 244.5C219.9 244.6 219.9 244.7 219.9 244.9Z" fill="#935542"/>
<path d="M209 313.3C209 313.3 215.1 332.3 227.2 336.2C239.3 340.1 249.1 332.6 254.7 334.3C260.3 336 306.5 341.8 318.6 339.5C318.6 339.5 320.6 326.4 317.8 323.7C315 321 264.5 310.7 259.5 310C254.5 309.3 232.5 305.9 232.5 305.9" fill="#FF7B61"/>
<path d="M411.7 189L265.3 221.5V264.7L322.5 299L411.7 246.7V189Z" fill="#FD68A7"/>
<path opacity="0.81" d="M412.2 188.9L321.6 251.2L265.3 221.5L307.8 198.4" fill="#3099AA"/>
<path d="M254.7 212.7L308.7 243.9C325.2 241.3 341.1 235.7 355.6 227.4C379.7 213.6 413 188 413 188L363.4 159.3L293.2 200.7C293.2 200.6 273.8 210.1 254.7 212.7Z" fill="#FD68A7"/>
<path d="M309.6 242.4L309.4 242.3L259.3 213.4L260.8 213.1C273.5 210.1 285.9 205.8 297.7 200.3L361.4 162.7L407.3 189.3L406.6 189.8C406.3 190 376.2 213.2 354.6 225.5C333 237.8 310 242.4 309.8 242.5L309.6 242.4ZM262.4 213.8L309.7 241.1C325.2 237.6 340.1 232 353.9 224.3C373.6 213 400.5 192.7 405.1 189.2L361.3 163.8L298.2 201.1C286.7 206.6 274.7 210.8 262.4 213.8Z" fill="#2E3192"/>
<path opacity="0.54" d="M321.6 251.2V299L411.7 246.7L413 187.9L321.6 251.2Z" fill="#3099AA"/>
<path opacity="0.54" d="M321.6 251.2V299L411.7 246.7L413 187.9L321.6 251.2Z" fill="#3099AA"/>
<path opacity="0.5" d="M326.5 191.1L359.9 170.3L396.4 189.6C396.4 189.6 358.3 212.7 355.4 214.3C352.5 215.9 320.8 233.3 306.9 232.6L275.1 215L326.5 191.1Z" fill="white"/>
<path opacity="0.54" d="M337.4 220.1C353.306 220.1 366.2 213.877 366.2 206.2C366.2 198.523 353.306 192.3 337.4 192.3C321.494 192.3 308.6 198.523 308.6 206.2C308.6 213.877 321.494 220.1 337.4 220.1Z" fill="#3099AA"/>
<path opacity="0.68" d="M265.3 230.6C274.8 235.7 284.2 240.8 293.7 246C303.1 251.2 312.5 256.4 321.9 261.6H321.3L343.8 246.9L366.4 232.3L389 217.8C396.6 213 404.1 208.2 411.7 203.4C404.3 208.4 396.8 213.4 389.4 218.4L367 233.1L344.5 247.9L322 262.5L321.7 262.7L321.4 262.5C312 257.3 302.7 252 293.3 246.6C284 241.3 274.7 236 265.3 230.6Z" fill="#3099AA"/>
<path opacity="0.68" d="M265.3 241.9C274.8 247 284.2 252.1 293.7 257.3C303.1 262.5 312.5 267.7 321.9 272.9H321.3L343.8 258.2L366.4 243.6L389 229C396.6 224.2 404.1 219.4 411.7 214.6C404.3 219.6 396.8 224.6 389.4 229.6L367 244.5L344.5 259.2L322 273.9L321.7 274.1L321.4 273.9C312 268.6 302.6 263.3 293.3 258C284 252.7 274.7 247.3 265.3 241.9Z" fill="#3099AA"/>
<path opacity="0.68" d="M265.6 250.6C275.1 255.7 284.5 260.8 294 266C303.5 271.2 312.8 276.4 322.2 281.6H321.6L344.1 266.9L366.7 252.3L389.3 237.8C396.9 233 404.4 228.2 412 223.4C404.6 228.4 397.1 233.4 389.7 238.4L367.3 253.3L344.8 268L322.3 282.7L322 282.9L321.7 282.7C312.3 277.4 303 272.1 293.6 266.8C284.2 261.3 274.9 255.9 265.6 250.6Z" fill="#3099AA"/>
<path opacity="0.68" d="M265.3 259C274.8 264.1 284.2 269.2 293.7 274.4C303.2 279.6 312.5 284.8 321.9 290H321.3L343.8 275.3L366.4 260.7L389 246.2C396.6 241.4 404.1 236.6 411.7 231.8C404.3 236.8 396.8 241.8 389.4 246.8L367 261.6L344.5 276.4L322 291L321.7 291.2L321.4 291C312 285.8 302.7 280.5 293.3 275.1C283.9 269.7 274.7 264.4 265.3 259Z" fill="#3099AA"/>
<path d="M299.2 197.1L355.6 227.3V279.6L376.8 267V213.3L321.6 183.8L299.2 197.1Z" fill="white"/>
<path opacity="0.1" d="M355.6 227.3L376.8 213.3V267L355.6 279.6V227.3Z" fill="#2E3192"/>
<path d="M343.5 202C344.9 202.1 346.3 202.5 347.5 203.1C348.4 203.5 349.1 204.1 349.6 204.9C350 205.6 349.9 206.4 349.5 207.1C348.9 208 348.1 208.6 347.1 209.1L350.8 210.9L348.7 212L344.8 210.1C343 210.8 341.1 211.2 339.1 211.2C337 211.3 334.9 210.9 333 210.1L337 208C337.8 208.3 338.7 208.5 339.6 208.5C340.2 208.5 340.9 208.5 341.5 208.3L335.8 205.5C334.2 205.9 332.8 206.3 331.6 206.5C330.3 206.7 329.1 206.8 327.8 206.7C326.4 206.6 325.1 206.2 323.8 205.6C322.9 205.2 322.1 204.6 321.7 203.7C321.4 203 321.5 202.1 322 201.5C322.5 200.8 323.2 200.2 324 199.8L320.3 198L322.3 196.9L326.1 198.8C327.9 198.1 329.8 197.7 331.7 197.6C333.7 197.5 335.7 197.9 337.5 198.6L333.5 200.7C332.7 200.4 332 200.3 331.2 200.3C330.6 200.3 330 200.3 329.5 200.5L335 203.2L335.2 203.1C336.9 202.7 338.3 202.3 339.5 202.1C341 201.9 342.3 201.9 343.5 202ZM344.8 206.5C344.8 206 344.4 205.6 343.6 205.2C342.9 204.8 342 204.7 341.2 204.7C340.4 204.7 339.6 204.8 338.8 205L344 207.6C344.6 207.2 344.8 206.8 344.8 206.5ZM332.3 203.9L327.4 201.5C327.1 201.7 326.8 202 326.8 202.4C326.8 202.8 327.1 203.2 327.9 203.6C328.6 204 329.4 204.1 330.2 204.1C330.9 204.1 331.6 204 332.3 203.9Z" fill="#2E3192"/>
<path d="M394.9 185.6C394.9 185.6 395.5 195.2 388 195.8C388 195.8 394.3 198.4 395.4 203.5C395.4 203.5 396.2 196.5 402.6 195.7C398 194.7 394.7 190.4 394.9 185.6Z" fill="white"/>
<path d="M259.8 205.1C276.258 205.1 289.6 197.265 289.6 187.6C289.6 177.935 276.258 170.1 259.8 170.1C243.342 170.1 230 177.935 230 187.6C230 197.265 243.342 205.1 259.8 205.1Z" fill="#F7931E"/>
<path d="M229.9 187.6V182.5L233.2 186.5L229.9 187.6Z" fill="#F7931E"/>
<path d="M289.6 182.5V187.6H285.8L288.6 183.5L289.6 182.5Z" fill="#F7931E"/>
<path d="M259.8 200C276.258 200 289.6 192.165 289.6 182.5C289.6 172.835 276.258 165 259.8 165C243.342 165 230 172.835 230 182.5C230 192.165 243.342 200 259.8 200Z" fill="#FFBE30"/>
<path d="M274.9 180.2C275.1 180.6 275.2 181.1 275.1 181.5L275 182H269.6C269.6 181.8 269.7 181.7 269.7 181.5C269.7 181.1 269.6 180.8 269.4 180.5C269.1 180 268.6 179.5 268.1 179.3C267.3 178.9 266.4 178.7 265.5 178.6C264.7 178.5 263.8 178.6 263 178.9C262.2 179.2 261.9 179.7 262.1 180.2C262.4 180.8 262.8 181.4 263.3 181.9C263.9 182.5 264.4 183.1 264.9 183.8C265.4 184.4 265.5 185.2 265.2 185.9C264.6 186.9 263.7 187.6 262.6 188C260.8 188.8 258.8 189.2 256.8 189.2C254.7 189.3 252.5 189 250.5 188.3L247.4 189.7L243.8 188L246.9 186.7C246.4 186.3 245.9 185.9 245.4 185.4C245.1 185 244.8 184.6 244.7 184.2C244.6 183.9 244.5 183.5 244.5 183.2C244.5 183 244.5 182.7 244.5 182.5L244.6 182.2H250.1C250 182.4 250 182.6 250 182.8C250 183.2 250.2 183.7 250.4 184C250.8 184.7 251.5 185.2 252.2 185.5C253.2 186 254.3 186.3 255.4 186.3C256.4 186.4 257.4 186.2 258.3 185.8C259.1 185.5 259.3 185 259.2 184.5C258.9 183.8 258.5 183.3 258 182.8C257.4 182.2 256.8 181.6 256.3 180.9C255.8 180.3 255.7 179.5 256.1 178.8C256.8 177.8 257.7 177.1 258.9 176.7C260.7 176 262.5 175.6 264.4 175.6C266.4 175.5 268.4 175.8 270.3 176.5L273.4 175.2L276.8 177.1L273.7 178.5C274.1 179 274.6 179.5 274.9 180.2Z" fill="#F7931E"/>
<path d="M259.8 198.6C245.4 198.6 233.6 191.5 233.6 182.8C233.6 174.1 245.4 167 259.8 167C274.2 167 286 174 286 182.7C286 191.4 274.2 198.6 259.8 198.6ZM259.8 169.2C246.6 169.2 235.9 175.3 235.9 182.7C235.9 190.1 246.6 196.2 259.8 196.2C273 196.2 283.7 190.1 283.7 182.7C283.7 175.3 273 169.2 259.8 169.2Z" fill="#F7931E"/>
<path d="M259.8 198.7C276.258 198.7 289.6 190.865 289.6 181.2C289.6 171.535 276.258 163.7 259.8 163.7C243.342 163.7 230 171.535 230 181.2C230 190.865 243.342 198.7 259.8 198.7Z" fill="#F7931E"/>
<path d="M229.9 181.2V176.1L233.2 180.2L229.9 181.2Z" fill="#F7931E"/>
<path d="M289.6 176.1V181.2H285.8L288.6 177.1L289.6 176.1Z" fill="#F7931E"/>
<path d="M259.8 193.6C276.258 193.6 289.6 185.765 289.6 176.1C289.6 166.435 276.258 158.6 259.8 158.6C243.342 158.6 230 166.435 230 176.1C230 185.765 243.342 193.6 259.8 193.6Z" fill="#FFBE30"/>
<path d="M274.9 173.8C275.1 174.2 275.2 174.7 275.1 175.1L275 175.6H269.6C269.6 175.4 269.7 175.3 269.7 175.1C269.7 174.7 269.6 174.4 269.4 174.1C269.1 173.6 268.6 173.2 268.1 173C267.3 172.6 266.4 172.4 265.5 172.3C264.7 172.2 263.8 172.4 263.1 172.7C262.3 173 262 173.5 262.2 174C262.4 174.6 262.8 175.2 263.4 175.7C264 176.3 264.5 176.9 265 177.6C265.5 178.2 265.6 179 265.3 179.7C264.7 180.7 263.8 181.4 262.7 181.8C260.9 182.6 258.9 183 256.9 183C254.8 183.1 252.6 182.8 250.6 182.1L247.5 183.4L243.8 181.6L246.9 180.3C246.4 179.9 245.9 179.5 245.4 179C245.1 178.6 244.8 178.2 244.7 177.8C244.6 177.5 244.5 177.1 244.5 176.8C244.5 176.6 244.5 176.3 244.5 176.1L244.6 175.8H250.1C250 176 250 176.2 250 176.4C250 176.8 250.2 177.3 250.4 177.6C250.8 178.3 251.5 178.8 252.2 179.1C253.2 179.6 254.3 179.9 255.4 179.9C256.4 180 257.4 179.8 258.3 179.4C259.1 179.1 259.3 178.6 259.2 178.1C258.9 177.4 258.5 176.9 258 176.4C257.4 175.8 256.8 175.2 256.3 174.5C255.8 173.9 255.7 173.1 256.1 172.4C256.7 171.4 257.7 170.7 258.9 170.3C260.7 169.6 262.5 169.2 264.4 169.2C266.4 169.1 268.4 169.4 270.3 170.1L273.4 168.8L276.8 170.7L273.7 172C274.1 172.6 274.6 173.1 274.9 173.8Z" fill="#F7931E"/>
<path d="M259.8 192.2C245.4 192.2 233.6 185.1 233.6 176.4C233.6 167.7 245.4 160.6 259.8 160.6C274.2 160.6 286 167.7 286 176.4C286 185.1 274.2 192.2 259.8 192.2ZM259.8 162.8C246.6 162.8 235.9 168.9 235.9 176.3C235.9 183.7 246.6 189.8 259.8 189.8C273 189.8 283.7 183.7 283.7 176.3C283.7 168.9 273 162.8 259.8 162.8Z" fill="#F7931E"/>
<path d="M259.8 192.6C276.258 192.6 289.6 184.765 289.6 175.1C289.6 165.435 276.258 157.6 259.8 157.6C243.342 157.6 230 165.435 230 175.1C230 184.765 243.342 192.6 259.8 192.6Z" fill="#F7931E"/>
<path d="M229.9 175.1V170.1L233.2 174.1L229.9 175.1Z" fill="#F7931E"/>
<path d="M289.6 170.1V175.1H285.8L288.6 171.1L289.6 170.1Z" fill="#F7931E"/>
<path d="M259.8 187.6C276.258 187.6 289.6 179.765 289.6 170.1C289.6 160.435 276.258 152.6 259.8 152.6C243.342 152.6 230 160.435 230 170.1C230 179.765 243.342 187.6 259.8 187.6Z" fill="#FFBE30"/>
<path d="M274.9 167.8C275.1 168.2 275.2 168.7 275.1 169.1L275 169.6L269.6 169.7C269.6 169.5 269.7 169.4 269.7 169.2C269.7 168.8 269.6 168.5 269.4 168.2C269.1 167.7 268.6 167.3 268.1 167C267.3 166.6 266.4 166.4 265.5 166.3C264.7 166.2 263.8 166.4 263.1 166.7C262.3 167 262 167.5 262.2 168C262.4 168.6 262.8 169.2 263.4 169.7C264 170.3 264.5 170.9 265 171.6C265.5 172.2 265.6 173 265.3 173.7C264.7 174.7 263.8 175.4 262.7 175.8C260.9 176.6 258.9 177 256.9 177C254.8 177.1 252.6 176.8 250.6 176.1L247.5 177.4L243.8 175.6L246.9 174.3C246.4 173.9 245.9 173.5 245.4 173C244.9 172.4 244.5 171.6 244.5 170.8C244.5 170.6 244.5 170.3 244.5 170.1L244.6 169.8H250.1C250 170 250 170.2 250 170.4C250 170.8 250.2 171.3 250.4 171.6C250.8 172.3 251.5 172.8 252.2 173.1C253.2 173.6 254.3 173.9 255.4 173.9C256.4 174 257.4 173.8 258.3 173.4C259.1 173.1 259.3 172.6 259.2 172.1C258.9 171.4 258.5 170.9 258 170.4C257.4 169.8 256.8 169.2 256.3 168.5C255.8 167.9 255.7 167.1 256.1 166.4C256.7 165.4 257.7 164.7 258.9 164.3C260.7 163.6 262.5 163.2 264.4 163.2C266.4 163.1 268.4 163.4 270.3 164.1L273.4 162.8L276.8 164.7L273.7 166C274.1 166.5 274.6 167.1 274.9 167.8Z" fill="#F7931E"/>
<path d="M259.8 186.1C245.4 186.1 233.6 179 233.6 170.3C233.6 161.6 245.4 154.5 259.8 154.5C274.2 154.5 286 161.6 286 170.3C286 179 274.2 186.1 259.8 186.1ZM259.8 156.8C246.6 156.8 235.9 162.9 235.9 170.3C235.9 177.7 246.6 183.8 259.8 183.8C273 183.8 283.7 177.7 283.7 170.3C283.7 162.9 273 156.8 259.8 156.8Z" fill="#F7931E"/>
<path d="M259.8 186.5C276.258 186.5 289.6 178.665 289.6 169C289.6 159.335 276.258 151.5 259.8 151.5C243.342 151.5 230 159.335 230 169C230 178.665 243.342 186.5 259.8 186.5Z" fill="#F7931E"/>
<path d="M229.9 169V163.9L233.2 168L229.9 169Z" fill="#F7931E"/>
<path d="M289.6 163.9V169H285.8L288.6 164.9L289.6 163.9Z" fill="#F7931E"/>
<path d="M259.8 181.4C276.258 181.4 289.6 173.565 289.6 163.9C289.6 154.235 276.258 146.4 259.8 146.4C243.342 146.4 230 154.235 230 163.9C230 173.565 243.342 181.4 259.8 181.4Z" fill="#FFBE30"/>
<path d="M274.9 161.6C275.1 162 275.2 162.5 275.1 162.9L275 163.4H269.6C269.6 163.2 269.7 163.1 269.7 162.9C269.7 162.5 269.6 162.2 269.4 161.9C269.1 161.4 268.6 161 268.1 160.7C267.3 160.3 266.4 160.1 265.5 160C264.7 159.9 263.8 160.1 263.1 160.4C262.3 160.7 262 161.2 262.2 161.7C262.5 162.4 262.8 162.9 263.4 163.4C264 164 264.5 164.6 265 165.3C265.5 165.9 265.6 166.7 265.3 167.4C264.7 168.4 263.8 169.1 262.7 169.5C260.9 170.3 258.9 170.7 256.9 170.7C254.8 170.8 252.6 170.5 250.6 169.8L247.5 171.2L243.8 169.4L246.9 168.1C246.4 167.7 245.9 167.3 245.4 166.8C245.1 166.4 244.8 166 244.7 165.6C244.6 165.3 244.5 164.9 244.5 164.6C244.5 164.4 244.5 164.1 244.5 163.9L244.6 163.6H250.1C250 163.8 250 164 250 164.2C250 164.6 250.2 165.1 250.4 165.4C250.8 166.1 251.5 166.6 252.2 166.9C253.2 167.4 254.3 167.7 255.4 167.7C256.4 167.8 257.4 167.6 258.3 167.2C259.1 166.9 259.3 166.4 259.2 165.9C258.9 165.2 258.5 164.7 258 164.2C257.4 163.6 256.8 163 256.3 162.3C255.8 161.7 255.7 160.9 256.1 160.2C256.8 159.2 257.7 158.5 258.9 158.1C260.7 157.4 262.5 157 264.4 157C266.4 156.9 268.4 157.2 270.3 157.9L273.4 156.6L276.8 158.5L273.7 159.9C274.1 160.3 274.6 160.9 274.9 161.6Z" fill="#F7931E"/>
<path d="M259.8 180C245.4 180 233.6 172.9 233.6 164.2C233.6 155.5 245.4 148.4 259.8 148.4C274.2 148.4 286 155.5 286 164.2C286 172.9 274.2 180 259.8 180ZM259.8 150.7C246.6 150.7 235.9 156.8 235.9 164.2C235.9 171.6 246.6 177.7 259.8 177.7C273 177.7 283.7 171.6 283.7 164.2C283.7 156.8 273 150.6 259.8 150.7Z" fill="#F7931E"/>
<path d="M259.5 178.9C275.958 178.9 289.3 171.065 289.3 161.4C289.3 151.735 275.958 143.9 259.5 143.9C243.042 143.9 229.7 151.735 229.7 161.4C229.7 171.065 243.042 178.9 259.5 178.9Z" fill="#F7931E"/>
<path d="M229.7 161.4V156.4L232.9 160.4L229.7 161.4Z" fill="#F7931E"/>
<path d="M289.4 156.4V161.4H285.6L288.3 157.4L289.4 156.4Z" fill="#F7931E"/>
<path d="M259.5 173.9C275.958 173.9 289.3 166.065 289.3 156.4C289.3 146.735 275.958 138.9 259.5 138.9C243.042 138.9 229.7 146.735 229.7 156.4C229.7 166.065 243.042 173.9 259.5 173.9Z" fill="#FFBE30"/>
<path d="M274.6 154C274.8 154.4 274.9 154.9 274.8 155.3L274.7 155.8H269.2C269.3 155.7 269.3 155.5 269.3 155.3C269.3 154.9 269.2 154.6 269 154.3C268.7 153.8 268.2 153.3 267.7 153.1C266.9 152.7 266 152.5 265.1 152.4C264.3 152.3 263.4 152.5 262.7 152.8C261.9 153.1 261.7 153.6 261.8 154.1C262.1 154.7 262.5 155.3 263 155.8C263.6 156.4 264.1 157 264.6 157.7C265.1 158.3 265.2 159.1 264.9 159.8C264.3 160.8 263.4 161.5 262.3 161.9C260.5 162.7 258.5 163.1 256.5 163.1C254.4 163.2 252.2 162.9 250.2 162.2L247.1 163.6L243.4 161.8L246.4 160.5C245.9 160.1 245.4 159.7 244.9 159.2C244.6 158.8 244.3 158.4 244.2 158C244.1 157.7 244 157.3 244 157C244 156.8 244 156.5 244.1 156.3L244.2 156H249.6C249.6 156.1 249.5 156.3 249.5 156.6C249.5 157 249.7 157.5 249.9 157.8C250.3 158.5 251 159 251.7 159.3C252.7 159.8 253.8 160.1 254.9 160.1C255.9 160.2 256.9 160 257.8 159.6C258.6 159.3 258.8 158.8 258.7 158.3C258.4 157.6 258 157.1 257.5 156.6C256.9 156 256.3 155.4 255.8 154.7C255.3 154.1 255.2 153.3 255.6 152.6C256.2 151.6 257.2 150.9 258.4 150.5C260.2 149.8 262 149.4 263.9 149.4C265.9 149.3 267.9 149.6 269.8 150.3L272.9 149L276.3 150.9L273.2 152.3C273.9 152.7 274.4 153.3 274.6 154Z" fill="#F7931E"/>
<path d="M259.6 172.4C245.2 172.4 233.4 165.3 233.4 156.6C233.4 147.9 245.2 140.8 259.6 140.8C274.1 140.8 285.8 147.9 285.8 156.6C285.8 165.3 274 172.4 259.6 172.4ZM259.6 143.1C246.4 143.1 235.7 149.2 235.7 156.6C235.7 164 246.4 170.1 259.6 170.1C272.8 170.1 283.5 164 283.5 156.6C283.5 149.2 272.7 143.1 259.6 143.1Z" fill="#F7931E"/>
<path d="M259.5 172.5C275.958 172.5 289.3 164.665 289.3 155C289.3 145.335 275.958 137.5 259.5 137.5C243.042 137.5 229.7 145.335 229.7 155C229.7 164.665 243.042 172.5 259.5 172.5Z" fill="#F7931E"/>
<path d="M229.7 155V150L232.9 154L229.7 155Z" fill="#F7931E"/>
<path d="M289.4 150V155H285.6L288.3 151L289.4 150Z" fill="#F7931E"/>
<path d="M259.5 167.5C275.958 167.5 289.3 159.665 289.3 150C289.3 140.335 275.958 132.5 259.5 132.5C243.042 132.5 229.7 140.335 229.7 150C229.7 159.665 243.042 167.5 259.5 167.5Z" fill="#FFBE30"/>
<path d="M274.6 147.6C274.8 148 274.9 148.5 274.8 148.9L274.7 149.4H269.2C269.4 148.9 269.3 148.4 269 148C268.7 147.5 268.2 147 267.7 146.8C266.9 146.4 266 146.2 265.1 146.1C264.3 146 263.4 146.2 262.7 146.5C261.9 146.8 261.7 147.3 261.8 147.8C262.1 148.4 262.5 149 263 149.5C263.6 150.1 264.1 150.7 264.6 151.4C265.1 152 265.2 152.8 264.9 153.5C264.3 154.5 263.4 155.2 262.3 155.6C260.5 156.4 258.5 156.8 256.5 156.8C254.4 156.9 252.2 156.6 250.2 155.9L247.1 157.3L243.4 155.5L246.4 154.2C245.9 153.8 245.4 153.4 244.9 152.9C244.6 152.5 244.3 152.1 244.2 151.7C244.1 151.4 244 151 244 150.7C244 150.5 244 150.2 244.1 150L244.2 149.7H249.6C249.6 149.8 249.5 150 249.5 150.3C249.5 150.7 249.7 151.2 249.9 151.5C250.3 152.2 251 152.7 251.7 153C252.7 153.5 253.8 153.8 254.9 153.8C255.9 153.9 256.9 153.7 257.8 153.3C258.6 153 258.8 152.5 258.7 152C258.4 151.3 258 150.8 257.5 150.3C256.9 149.7 256.3 149.1 255.8 148.4C255.3 147.8 255.2 147 255.6 146.3C256.2 145.3 257.2 144.6 258.4 144.2C260.2 143.5 262 143.1 263.9 143.1C265.9 143 267.9 143.3 269.8 144L272.9 142.7L276.3 144.6L273.2 146C273.9 146.4 274.4 147 274.6 147.6Z" fill="#F7931E"/>
<path d="M259.6 166C245.2 166 233.4 158.9 233.4 150.2C233.4 141.5 245.2 134.4 259.6 134.4C274.1 134.4 285.8 141.5 285.8 150.2C285.8 158.9 274 166 259.6 166ZM259.6 136.7C246.4 136.7 235.7 142.8 235.7 150.2C235.7 157.6 246.4 163.7 259.6 163.7C272.8 163.7 283.5 157.6 283.5 150.2C283.5 142.8 272.7 136.7 259.6 136.7Z" fill="#F7931E"/>
<path d="M260 166.5C276.458 166.5 289.8 158.665 289.8 149C289.8 139.335 276.458 131.5 260 131.5C243.542 131.5 230.2 139.335 230.2 149C230.2 158.665 243.542 166.5 260 166.5Z" fill="#F7931E"/>
<path d="M230.1 149V143.9L233.4 148L230.1 149Z" fill="#F7931E"/>
<path d="M289.8 143.9V149H286L288.8 144.9L289.8 143.9Z" fill="#F7931E"/>
<path d="M260 161.4C276.458 161.4 289.8 153.565 289.8 143.9C289.8 134.235 276.458 126.4 260 126.4C243.542 126.4 230.2 134.235 230.2 143.9C230.2 153.565 243.542 161.4 260 161.4Z" fill="#FFBE30"/>
<path d="M275.1 141.6C275.3 142 275.4 142.5 275.3 142.9L275.2 143.4H269.8C270 142.9 269.9 142.4 269.6 142C269.3 141.5 268.8 141 268.3 140.8C267.5 140.4 266.6 140.2 265.7 140.1C264.9 140 264 140.2 263.3 140.5C262.5 140.8 262.2 141.3 262.4 141.8C262.7 142.4 263.1 143 263.6 143.5C264.2 144.1 264.7 144.7 265.2 145.4C265.7 146 265.8 146.8 265.5 147.5C264.9 148.5 264 149.2 262.9 149.6C261.1 150.4 259.1 150.8 257.1 150.8C255 150.9 252.8 150.6 250.8 149.9L247.7 151.3L244.1 149.5L247.2 148.2C246.7 147.8 246.2 147.4 245.7 146.9C245.4 146.5 245.1 146.1 245 145.7C244.9 145.4 244.8 145 244.8 144.7C244.8 144.5 244.8 144.2 244.9 144L245 143.7H250.4C250.3 143.9 250.3 144.1 250.3 144.3C250.3 144.7 250.5 145.2 250.7 145.5C251.1 146.2 251.8 146.7 252.5 147C253.5 147.5 254.6 147.8 255.7 147.8C256.7 147.9 257.7 147.7 258.6 147.3C259.4 147 259.6 146.5 259.5 146C259.2 145.3 258.8 144.8 258.3 144.3C257.7 143.7 257.1 143.1 256.6 142.4C256.1 141.8 256 141 256.4 140.3C257.1 139.3 258 138.6 259.2 138.2C261 137.5 262.8 137.1 264.7 137.1C266.7 137 268.7 137.3 270.6 138L273.7 136.7L277.1 138.6L274 140C274.4 140.4 274.8 140.9 275.1 141.6Z" fill="#F7931E"/>
<path d="M260 160C245.6 160 233.8 152.9 233.8 144.2C233.8 135.5 245.6 128.4 260 128.4C274.5 128.4 286.2 135.5 286.2 144.2C286.2 152.9 274.5 160 260 160ZM260 130.6C246.8 130.6 236.1 136.7 236.1 144.1C236.1 151.5 246.8 157.6 260 157.6C273.2 157.6 283.9 151.5 283.9 144.1C283.9 136.7 273.2 130.6 260 130.6Z" fill="#F7931E"/>
<path d="M269 158.9C285.458 158.9 298.8 151.065 298.8 141.4C298.8 131.735 285.458 123.9 269 123.9C252.542 123.9 239.2 131.735 239.2 141.4C239.2 151.065 252.542 158.9 269 158.9Z" fill="#F7931E"/>
<path d="M239.1 141.4V136.4L242.4 140.4L239.1 141.4Z" fill="#F7931E"/>
<path d="M298.8 136.4V141.4H295L297.8 137.4L298.8 136.4Z" fill="#F7931E"/>
<path d="M269 153.9C285.458 153.9 298.8 146.065 298.8 136.4C298.8 126.735 285.458 118.9 269 118.9C252.542 118.9 239.2 126.735 239.2 136.4C239.2 146.065 252.542 153.9 269 153.9Z" fill="#FFBE30"/>
<path d="M284.1 134C284.3 134.4 284.4 134.9 284.3 135.3L284.2 135.8H278.8C278.8 135.6 278.9 135.5 278.9 135.3C278.9 134.9 278.8 134.6 278.6 134.3C278.3 133.8 277.8 133.4 277.3 133.1C276.5 132.7 275.6 132.5 274.7 132.4C273.9 132.3 273 132.5 272.3 132.8C271.5 133.1 271.2 133.6 271.4 134.1C271.7 134.8 272 135.3 272.6 135.8C273.2 136.4 273.7 137 274.2 137.7C274.7 138.3 274.8 139.1 274.5 139.8C273.9 140.8 273 141.5 271.9 141.9C270.1 142.7 268.1 143.1 266.1 143.1C264 143.2 261.8 142.9 259.8 142.2L256.7 143.6L253 141.8L256.1 140.5C255.6 140.1 255.1 139.7 254.6 139.2C254.3 138.8 254 138.4 253.9 138C253.8 137.7 253.7 137.3 253.7 137C253.7 136.8 253.7 136.5 253.7 136.3L253.8 136H259.3C259.2 136.2 259.2 136.4 259.2 136.6C259.2 137 259.4 137.5 259.6 137.8C260 138.5 260.7 139 261.4 139.3C262.4 139.8 263.5 140.1 264.6 140.1C265.6 140.2 266.6 140 267.5 139.6C268.3 139.3 268.5 138.8 268.4 138.3C268.1 137.7 267.7 137.1 267.2 136.6C266.6 136 266 135.4 265.5 134.7C265 134.1 264.9 133.3 265.3 132.6C265.9 131.6 266.9 130.8 268.1 130.5C269.9 129.8 271.7 129.4 273.6 129.4C275.6 129.3 277.6 129.6 279.5 130.3L282.6 129L286 130.9L282.9 132.3C283.3 132.8 283.8 133.3 284.1 134Z" fill="#F7931E"/>
<path d="M269 152.4C254.6 152.4 242.8 145.3 242.8 136.6C242.8 127.9 254.6 120.8 269 120.8C283.4 120.8 295.2 127.9 295.2 136.6C295.2 145.3 283.5 152.4 269 152.4ZM269 123.1C255.8 123.1 245.1 129.2 245.1 136.6C245.1 144 255.8 150.1 269 150.1C282.2 150.1 292.9 144 292.9 136.6C292.9 129.2 282.2 123.1 269 123.1Z" fill="#F7931E"/>
<path d="M289.4 137.5C289.4 137.5 290 147.1 282.5 147.7C282.5 147.7 288.8 150.3 289.9 155.4C289.9 155.4 290.7 148.4 297.1 147.6C292.4 146.6 289.2 142.3 289.4 137.5Z" fill="white"/>
</svg>
