<svg width="400" height="400" viewBox="0 0 400 400" fill="none" xmlns="http://www.w3.org/2000/svg">
<path opacity="0.42" d="M76.464 327.808C60.792 321.784 45.016 314.84 32.888 303.224C13.728 284.904 6.22398 256.496 9.72798 230.248C13.232 203.992 26.744 179.832 44.184 159.912C56.448 145.968 70.736 133.68 81.792 118.704C99.456 94.776 110.024 62.928 136.8 50.024C147.024 45.096 158.528 43.592 169.84 43.52C201.112 43.392 231.504 53.864 259.848 67.056C271.216 72.344 282.64 78.288 291.088 87.512C306.096 104.056 309.096 127.72 315.872 148.992C324.92 177.048 341.384 202.144 363.52 221.616C374.088 230.912 386.6 239.904 389.904 253.568C392.216 263.184 389.392 273.264 385.76 282.464C381.44 293.368 375.776 304.04 367.12 311.96C348.944 328.576 321.936 329.856 297.328 330.24L239.272 331.168C213.096 331.576 187.88 339.752 162.112 339.032C131.016 338.104 106.28 339.264 76.472 327.824L76.464 327.808Z" fill="#FD68A7"/>
<path d="M284.952 314.504C284.952 314.504 267.096 305.208 257.144 302.792C252.544 301.656 246.48 295.312 240.72 287.84C238.864 285.384 237 282.8 235.144 280.248C235.144 280.248 204.344 230.336 221.096 219.432C221.096 219.432 228.28 219.272 232.248 221.416C236.216 223.552 244.936 241.648 246.4 244.84C247.856 248.04 263.736 277.688 264.8 278.352C265.864 279.016 267.632 281.456 273.984 284.856C281.752 289.04 293.968 301.296 293.968 301.296L284.952 314.504Z" fill="#FD68A7"/>
<path d="M230.176 248.808C230.904 239.104 231.408 230.032 231.68 221.608C229.336 220.368 226.528 218.92 224.24 217.888C217.28 214.568 207.56 210.096 201.336 207.24C197.688 205.568 194.12 204.336 194.12 204.336C194.12 204.336 169.216 201.944 167.16 202.08C164.496 202.8 161.872 203.696 159.32 204.76C150.496 208.12 133.464 214.928 130.76 216.848C126.784 219.696 112.56 289.36 112.168 294.152C111.8 298.744 131.512 305.04 149.76 309.864C149.76 316.928 149.6 326.832 149.44 335.896C149.44 337.44 149.384 338.952 149.36 340.424H229.248C229.136 338.872 229.04 337.336 228.968 335.896V335.32C228.664 329.2 227.472 318.232 227.776 307.552C227.776 307.552 227.584 296.304 228.704 291.448C228.872 270 230.16 248.816 230.16 248.816L230.176 248.808ZM128.888 289.792C129.008 280.72 141.096 263.824 141.096 263.824C141.28 263.744 141.472 263.672 141.664 263.608C141.664 263.608 142.288 263.528 142.288 263.536C142.288 263.544 144.144 261.76 144.144 261.76C144.584 263.368 148.584 286.176 149.576 299.448C138.312 297.216 128.824 294.112 128.888 289.792Z" fill="white"/>
<path d="M230.176 248.808C230.904 239.104 231.408 230.032 231.68 221.608C229.336 220.368 226.528 218.92 224.24 217.888C217.28 214.568 207.56 210.096 201.336 207.24C197.688 205.568 194.12 204.336 194.12 204.336C194.12 204.336 169.216 201.944 167.16 202.08C164.496 202.8 161.872 203.696 159.32 204.76C150.496 208.12 133.464 214.928 130.76 216.848C126.784 219.696 112.56 289.36 112.168 294.152C111.8 298.744 131.512 305.04 149.76 309.864C149.76 316.928 149.6 326.832 149.44 335.896C149.44 337.44 149.384 338.952 149.36 340.424H229.248C229.136 338.872 229.04 337.336 228.968 335.896V335.32C228.664 329.2 227.472 318.232 227.776 307.552C227.776 307.552 227.584 296.304 228.704 291.448C228.872 270 230.16 248.816 230.16 248.816L230.176 248.808ZM128.888 289.792C129.008 280.72 141.096 263.824 141.096 263.824C141.28 263.744 141.472 263.672 141.664 263.608C141.664 263.608 142.288 263.528 142.288 263.536C142.288 263.544 144.144 261.76 144.144 261.76C144.584 263.368 148.584 286.176 149.576 299.448C138.312 297.216 128.824 294.112 128.888 289.792Z" fill="url(#paint0_linear_45_553)"/>
<path d="M231.656 335.832C231.136 332.048 230.632 328.264 230.184 324.568V324.52C230.048 323.28 229.896 322.064 229.76 320.856V320.664C229.176 315.568 228.688 310.68 228.336 306.208C228.12 302.848 228.272 299.472 228.784 296.152C230.176 273.264 230.864 249.128 230.864 249.128C231.6 239.256 232.016 230.016 232.296 221.416C232.296 221.416 201.032 206.632 198.2 205.792C198.2 205.792 204.128 219.736 208.576 250.856C210.288 262.808 213.448 282.928 215.752 303.472C217 314.552 219.328 325.848 221.096 335.84C221.376 337.384 221.624 338.888 221.864 340.368H232.328C232.08 338.864 231.864 337.344 231.648 335.84L231.656 335.832Z" fill="#FD68A7"/>
<path d="M179.6 299.064C180.824 287.488 181.944 275.944 181.4 269.616C177.088 218.736 164.888 205.272 163.12 203.304C161.744 203.824 156.536 205.776 155.016 206.384C146.648 209.672 129.664 215.68 127.368 217.352C123.4 220.2 107.728 293.288 107.248 298.008C106.928 301.208 127.384 307.88 148.256 313.816C148.064 319.544 148.6 327.616 146.704 336.032C146.224 337.464 145.912 338.944 145.776 340.448L174.864 340.336C175.04 338.832 175.224 337.32 175.4 335.808C175.96 331.264 176.536 326.608 177.112 321.648C185.832 323.904 191.76 325.368 191.76 325.368C191.76 325.368 199.96 311.52 202.336 305.904C202.76 304.976 192.216 302.496 179.584 299.072L179.6 299.064ZM138.64 282.144C138.472 275.904 139.528 269.696 141.752 263.864C142.784 267.432 144.216 277.632 145.472 287.768C141.24 285.64 138.696 284.248 138.64 282.144Z" fill="#FD68A7"/>
<path d="M165.92 202.808C165.92 202.808 169.088 196.824 168.216 179.824C167.976 175.12 192.936 190.976 192.936 190.976C192.936 190.976 192.856 192.6 192.8 194.784C192.8 195.712 192.752 196.696 192.752 197.72V199.952C192.752 200.408 192.752 201.088 192.808 201.624C192.864 202.16 192.88 202.816 192.936 203.344C193.128 204.488 193.44 205.608 193.864 206.68C195.016 209.328 175.272 209.504 165.92 202.792V202.808Z" fill="#FFAA71"/>
<path d="M186.856 213.608L190.304 218.256C191.12 219.352 191.688 220.04 191.608 221.512C191.504 223.16 190.776 224.712 189.576 225.848C189.28 226.192 188.832 226.376 188.376 226.328C188.104 226.232 187.872 226.064 187.688 225.848C186.32 224.64 185.176 223.208 184.296 221.608C183.8 220.528 184.416 219.656 184.848 218.592L186.864 213.608H186.856Z" fill="#18202D"/>
<path d="M189.832 220.584C191.336 221.576 192.016 225.696 192.816 227.368C194.672 231.288 196.984 235 198.568 239.064C200.584 244.224 201.36 249.768 202.048 255.256C203.128 264.304 203.824 273.384 204.152 282.496C204.392 289.256 204.424 296.04 205.448 302.728C206.088 306.928 207.104 311.336 205.576 315.296C204.416 318.32 201.928 320.608 199.472 322.736C197.536 321.032 195.536 319.232 194.584 316.84C194.08 315.448 193.768 313.992 193.656 312.52L191.648 294.776C190.912 288.216 190.168 281.656 189.6 275.08C189.192 270.432 188.872 265.784 188.888 261.136C188.888 257.08 189.16 253.032 188.768 248.992C188.36 244.728 187.216 240.552 186.68 236.296C186.184 232.432 184.488 224.256 187.656 221.12C188.576 220.28 189.272 220.2 189.848 220.592L189.832 220.584Z" fill="#18202D"/>
<path d="M191.784 207.848L186.856 213.608C186.856 213.608 178.944 212.072 176.632 207.944C174.32 203.816 191.784 207.84 191.784 207.84V207.848Z" fill="#FFAA71"/>
<path d="M192.904 202.808C192.904 202.808 192.336 207.192 186.848 213.608L196.664 224.76L196.072 205.008L192.904 202.808Z" fill="white"/>
<path d="M167.424 197.52C167.424 197.52 178.856 210.448 186.856 213.616L181.168 226.824L164.888 202.656L167.424 197.528V197.52Z" fill="white"/>
<path d="M192.904 202.808C192.904 202.808 192.336 207.192 186.848 213.608L196.664 224.76L196.072 205.008L192.904 202.808Z" fill="url(#paint1_linear_45_553)"/>
<path d="M167.424 197.52C167.424 197.52 178.856 210.448 186.856 213.616L181.168 226.824L164.888 202.656L167.424 197.528V197.52Z" fill="url(#paint2_linear_45_553)"/>
<path d="M212.112 331.536C211.08 331.512 210.056 331.32 209.08 330.968C209.08 330.968 207.496 329.944 206.288 329.296C205.984 329.12 205.68 328.96 205.36 328.824C203.544 328.296 201.816 327.48 200.264 326.4C198.264 324.888 191.76 318.792 191.76 318.792L195.968 312.288L197.904 305.88C197.904 305.88 213.08 307.392 215.104 308.592C215.296 308.704 215.48 308.832 215.656 308.96C217.272 310.144 217.984 311.752 218.752 312.416C219.04 312.688 221.68 315.512 221.544 316.656C221.464 317.968 220.72 319.144 219.56 319.76C219.56 319.76 219.032 322.856 217.424 324.24C217.144 325.96 216.08 327.456 214.544 328.272C214.544 328.272 213.84 331.184 212.12 331.528L212.112 331.536Z" fill="#FFAA71"/>
<path d="M187.96 135.992C187.96 135.992 215.376 129.392 209.6 164.096C203.824 198.8 197.248 201.616 180.552 194.704C163.856 187.784 165.016 165.584 164.024 154.728C163.032 143.872 179.216 136.504 187.96 135.992Z" fill="#FFAA71"/>
<path d="M173.56 160.032C173.152 156.984 167.096 155.952 166.68 160.536C166.264 165.12 169.608 173.112 171.888 172.288C174.168 171.464 174.12 164.24 173.56 160.032Z" fill="#FFAA71"/>
<path d="M203.12 305.92L191.8 325.384C191.8 325.384 161.816 317.648 154.816 315.68L170.84 296.648C170.84 296.648 194.392 302.032 203.12 305.92Z" fill="#FD68A7"/>
<path d="M192.832 201.64C184.336 200.944 176.712 196.16 172.376 188.824C177.784 194.248 185.04 197.432 192.696 197.736V199.968C192.696 200.424 192.8 201.152 192.824 201.64H192.832Z" fill="#A07A64"/>
<path d="M319.024 329.736H177.432C173.464 329.736 170.248 332.952 170.248 336.92V336.936C170.248 340.904 173.464 344.12 177.432 344.12H319.024C322.992 344.12 326.208 340.904 326.208 336.936V336.92C326.208 332.952 322.992 329.736 319.024 329.736Z" fill="#FD68A7"/>
<path d="M319.024 329.736H177.432C173.464 329.736 170.248 332.952 170.248 336.92V336.936C170.248 340.904 173.464 344.12 177.432 344.12H319.024C322.992 344.12 326.208 340.904 326.208 336.936V336.92C326.208 332.952 322.992 329.736 319.024 329.736Z" fill="url(#paint3_linear_45_553)"/>
<path d="M232.2 330.376L234.568 338.008L335.176 344.128L363.84 271.448C365.136 268.168 363.52 264.456 360.24 263.16C359.496 262.864 358.696 262.712 357.896 262.712H272.624C264.176 262.712 256.592 267.872 253.48 275.728L232.192 330.376H232.2Z" fill="#FD68A7"/>
<path d="M232.2 330.376L234.568 338.008L335.176 344.128L363.84 271.448C365.136 268.168 363.52 264.456 360.24 263.16C359.496 262.864 358.696 262.712 357.896 262.712H272.624C264.176 262.712 256.592 267.872 253.48 275.728L232.192 330.376H232.2Z" fill="url(#paint4_linear_45_553)"/>
<path d="M232.056 344.208H335.248L362.472 275.168C363.696 272.048 362.168 268.52 359.048 267.296C358.344 267.016 357.592 266.872 356.832 266.872H275.848C267.824 266.872 260.616 271.768 257.672 279.24L232.056 344.208Z" fill="#FD68A7"/>
<path d="M232.056 344.208H335.248L362.472 275.168C363.696 272.048 362.168 268.52 359.048 267.296C358.344 267.016 357.592 266.872 356.832 266.872H275.848C267.824 266.872 260.616 271.768 257.672 279.24L232.056 344.208Z" fill="url(#paint5_linear_45_553)"/>
<path d="M176.424 164.064C175.696 162.208 174.768 160.2 172.904 159.568C170.456 158.752 167.808 161.184 167.688 163.768C167.568 166.352 169.288 168.704 171.352 170.272C170.136 174.424 168.584 178.464 166.704 182.36C164.392 175.144 163.192 167.624 163.144 160.048C162.216 159.776 161.72 158.68 161.52 157.704C160.216 151.52 163.432 145.336 166.936 140.04C168.352 137.672 170.184 135.584 172.344 133.88C177.184 130.44 183.632 130.864 189.544 130.336C194.416 129.896 199.504 128.744 204.04 130.56C207.272 132.008 209.904 134.544 211.48 137.72C213.04 140.88 214.112 144.256 214.672 147.744C215.464 151.24 215.752 154.824 215.536 158.4C215.296 162 213.912 165.424 211.584 168.184C210.936 168.896 209.24 169.744 208.464 169.176C209.216 166.152 209.568 163.048 209.512 159.936C209.416 157.256 209.4 155.648 207.656 153.632C206.968 152.728 205.936 152.144 204.808 152.016C203.736 152.016 202.736 152.6 201.672 152.64C199.744 152.72 198.28 151.04 196.6 150.104C194.48 148.976 191.952 148.912 189.776 149.936C187.6 150.968 185.928 152.816 185.128 155.088C184.648 156.44 184.2 158.152 182.784 158.464C180.928 158.856 179.552 156.16 177.944 157.224C176.512 158.216 176.584 162.568 176.44 164.072L176.424 164.064Z" fill="#18202D"/>
<path d="M145.472 287.768L166.856 294.776C166.856 294.776 159.88 252.608 158.144 250.856C156.408 249.104 135.832 226.816 135.832 226.816C135.832 226.816 146.6 248.632 141.736 263.864" fill="url(#paint6_linear_45_553)"/>
<path d="M191.8 325.392L196.872 316.04C196.872 316.04 118.688 292.256 117.648 290.688C116.608 289.12 118.952 249.12 118.952 249.12L107.256 298C107.256 298 131.864 312.248 191.8 325.384V325.392Z" fill="url(#paint7_linear_45_553)"/>
<path d="M167.312 319.696V340.352L145.808 340.472C145.808 340.472 148.824 325.752 148.264 313.84L167.312 319.696Z" fill="url(#paint8_linear_45_553)"/>
<path d="M95.4241 212.12V243.608C95.4241 246.968 92.7041 249.688 89.3441 249.688H38.2161C34.8641 249.688 32.1441 246.96 32.1361 243.608V212.12C32.1361 211.784 32.1681 211.44 32.2161 211.104L68.4001 235.44L95.2481 210.808C95.3521 211.24 95.4161 211.68 95.4241 212.12Z" fill="white"/>
<path d="M94.616 207.328L67.7681 231.96L31.5601 207.656C32.0641 204.736 34.5921 202.6 37.5601 202.6H88.6881C91.5281 202.6 93.9921 204.552 94.616 207.32V207.328Z" fill="white"/>
<path d="M141.776 129.64C153.029 129.64 162.152 120.517 162.152 109.264C162.152 98.0106 153.029 88.888 141.776 88.888C130.523 88.888 121.4 98.0106 121.4 109.264C121.4 120.517 130.523 129.64 141.776 129.64Z" fill="white"/>
<path d="M133.592 139.48L128.048 124.08H155.768L151.368 139.08L133.592 139.48Z" fill="white"/>
<path d="M134.472 142.384H150.152V143.664C150.152 146.04 148.232 147.96 145.856 147.96H138.76C136.384 147.96 134.464 146.04 134.464 143.664V142.384H134.472Z" fill="white"/>
<g opacity="0.42">
<path d="M137.8 139.792C136.336 136.544 135.512 133.04 135.384 129.48C135.24 125.832 136.496 122.256 138.896 119.504C139.528 118.696 140.456 118.168 141.472 118.056C142.736 118.096 143.872 118.848 144.4 120C144.984 119.64 145.656 119.464 146.344 119.496C148.12 119.624 149.32 121.312 149.728 122.928C150.04 124.456 150.088 126.032 149.856 127.576C149.4 131.696 148.48 135.752 147.112 139.664L146.24 139.36C147.592 135.504 148.488 131.512 148.928 127.448C149.16 125.992 149.128 124.512 148.824 123.072C148.496 121.776 147.584 120.44 146.28 120.352C145.76 120.32 145.24 120.472 144.808 120.768C144.864 120.904 144.912 121.04 144.96 121.176C145.512 122.896 145.648 124.72 145.368 126.504C145.28 127.384 144.904 128.208 144.288 128.84C143.856 129.224 143.28 129.408 142.704 129.352C142.256 129.32 141.84 129.096 141.56 128.744C141.304 128.368 141.168 127.928 141.16 127.48C140.976 125.392 141.52 123.312 142.704 121.584C142.968 121.184 143.28 120.816 143.632 120.488C143.272 119.6 142.448 118.984 141.496 118.896C140.72 119.016 140.024 119.432 139.552 120.056C137.336 122.64 136.176 125.952 136.288 129.352C136.416 132.792 137.216 136.176 138.632 139.32L137.792 139.792H137.8ZM144.056 121.48C143.84 121.696 143.648 121.936 143.48 122.184C142.424 123.736 141.936 125.6 142.088 127.472C142.088 127.744 142.168 128.016 142.312 128.256C142.432 128.408 142.608 128.496 142.792 128.504C143.128 128.552 143.472 128.44 143.72 128.216C144.168 127.728 144.44 127.096 144.488 126.432C144.744 124.792 144.616 123.112 144.12 121.536C144.12 121.536 144.064 121.512 144.056 121.488V121.48Z" fill="#FD68A7"/>
</g>
<path d="M304.576 150.32H238.128C235.256 150.32 232.928 152.648 232.928 155.52V198.968C232.928 201.84 235.256 204.168 238.128 204.168H304.576C307.448 204.168 309.776 201.84 309.776 198.968V155.52C309.776 152.648 307.448 150.32 304.576 150.32Z" fill="white"/>
<path opacity="0.42" d="M251.576 164.608H236.24V178.72H251.576V164.608Z" fill="#FD68A7"/>
<path opacity="0.42" d="M270.048 164.608H254.712V178.72H270.048V164.608Z" fill="#FD68A7"/>
<path opacity="0.42" d="M251.576 181.688H236.24V195.8H251.576V181.688Z" fill="#FD68A7"/>
<path opacity="0.42" d="M270.048 181.688H254.712V195.8H270.048V181.688Z" fill="#FD68A7"/>
<path opacity="0.42" d="M287.824 164.608H272.488V178.72H287.824V164.608Z" fill="#FD68A7"/>
<path opacity="0.42" d="M306.288 164.608H290.952V178.72H306.288V164.608Z" fill="#FD68A7"/>
<path opacity="0.42" d="M287.824 181.688H272.488V195.8H287.824V181.688Z" fill="#FD68A7"/>
<path opacity="0.42" d="M306.288 181.688H290.952V195.8H306.288V181.688Z" fill="#FD68A7"/>
<defs>
<linearGradient id="paint0_linear_45_553" x1="172.736" y1="206.992" x2="169.608" y2="403.68" gradientUnits="userSpaceOnUse">
<stop stop-color="#231F20" stop-opacity="0"/>
<stop offset="1" stop-color="#231F20"/>
</linearGradient>
<linearGradient id="paint1_linear_45_553" x1="174.44" y1="183.624" x2="278.344" y2="340.352" gradientUnits="userSpaceOnUse">
<stop stop-color="#231F20" stop-opacity="0"/>
<stop offset="1" stop-color="#231F20"/>
</linearGradient>
<linearGradient id="paint2_linear_45_553" x1="164.144" y1="190.448" x2="268.056" y2="347.176" gradientUnits="userSpaceOnUse">
<stop stop-color="#231F20" stop-opacity="0"/>
<stop offset="1" stop-color="#231F20"/>
</linearGradient>
<linearGradient id="paint3_linear_45_553" x1="247.92" y1="350.888" x2="248.584" y2="320.888" gradientUnits="userSpaceOnUse">
<stop/>
<stop offset="0.12" stop-opacity="0.75"/>
<stop offset="1" stop-opacity="0"/>
</linearGradient>
<linearGradient id="paint4_linear_45_553" x1="282.568" y1="246.496" x2="315.312" y2="356.744" gradientUnits="userSpaceOnUse">
<stop/>
<stop offset="0.12" stop-opacity="0.75"/>
<stop offset="1" stop-opacity="0"/>
</linearGradient>
<linearGradient id="paint5_linear_45_553" x1="309.424" y1="427.936" x2="294.832" y2="281.984" gradientUnits="userSpaceOnUse">
<stop/>
<stop offset="0.12" stop-opacity="0.75"/>
<stop offset="1" stop-opacity="0"/>
</linearGradient>
<linearGradient id="paint6_linear_45_553" x1="181.728" y1="228" x2="14.4" y2="408.624" gradientUnits="userSpaceOnUse">
<stop stop-color="#231F20" stop-opacity="0"/>
<stop offset="1" stop-color="#231F20"/>
</linearGradient>
<linearGradient id="paint7_linear_45_553" x1="155.616" y1="275.152" x2="143.112" y2="387.4" gradientUnits="userSpaceOnUse">
<stop stop-color="#231F20" stop-opacity="0"/>
<stop offset="1" stop-color="#231F20"/>
</linearGradient>
<linearGradient id="paint8_linear_45_553" x1="159.888" y1="285.016" x2="154.144" y2="380.688" gradientUnits="userSpaceOnUse">
<stop stop-color="#231F20" stop-opacity="0"/>
<stop offset="1" stop-color="#231F20"/>
</linearGradient>
</defs>
</svg>
