<svg width="64" height="64" viewBox="0 0 64 64" fill="none" xmlns="http://www.w3.org/2000/svg">
<path d="M32.0001 61.3333C27.0223 61.3333 22.4445 60.2 18.2667 57.9333C14.089 55.6667 10.6667 52.6444 8.00008 48.8667V56H2.66675V40H18.6667V45.3333H12.0667C14.2001 48.5333 17.0112 51.1111 20.5001 53.0667C23.989 55.0222 27.8223 56 32.0001 56C35.3334 56 38.4556 55.3667 41.3667 54.1C44.2779 52.8333 46.8112 51.1222 48.9668 48.9667C51.1223 46.8111 52.8334 44.2778 54.1001 41.3667C55.3667 38.4555 56.0001 35.3333 56.0001 32H61.3334C61.3334 36.0444 60.5668 39.8444 59.0334 43.4C57.5001 46.9555 55.4001 50.0667 52.7334 52.7333C50.0667 55.4 46.9556 57.5 43.4001 59.0333C39.8445 60.5667 36.0445 61.3333 32.0001 61.3333ZM29.6001 50.6667V47.2C27.5112 46.7111 25.8112 45.8111 24.5001 44.5C23.189 43.1889 22.2223 41.4667 21.6001 39.3333L26.0001 37.6C26.5334 39.4222 27.3667 40.7889 28.5001 41.7C29.6334 42.6111 30.9334 43.0667 32.4001 43.0667C33.8668 43.0667 35.1223 42.7222 36.1667 42.0333C37.2112 41.3444 37.7334 40.2667 37.7334 38.8C37.7334 37.5111 37.189 36.4667 36.1001 35.6667C35.0112 34.8667 33.0667 33.9555 30.2668 32.9333C27.6445 32 25.7223 30.8889 24.5001 29.6C23.2779 28.3111 22.6667 26.6222 22.6667 24.5333C22.6667 22.7111 23.3001 21.0555 24.5667 19.5667C25.8334 18.0778 27.5556 17.1111 29.7334 16.6667V13.3333H34.4001V16.6667C36.0001 16.8 37.4556 17.4444 38.7668 18.6C40.0779 19.7555 40.9779 21.1111 41.4668 22.6667L37.2001 24.4C36.8445 23.3778 36.2668 22.5222 35.4668 21.8333C34.6667 21.1444 33.5556 20.8 32.1334 20.8C30.5779 20.8 29.389 21.1333 28.5667 21.8C27.7445 22.4667 27.3334 23.3778 27.3334 24.5333C27.3334 25.6889 27.8445 26.6 28.8667 27.2667C29.889 27.9333 31.7334 28.7111 34.4001 29.6C37.6001 30.7555 39.7334 32.1111 40.8001 33.6667C41.8667 35.2222 42.4001 36.9333 42.4001 38.8C42.4001 40.0889 42.1779 41.2222 41.7334 42.2C41.289 43.1778 40.7001 44.0111 39.9668 44.7C39.2334 45.3889 38.3779 45.9444 37.4001 46.3667C36.4223 46.7889 35.3779 47.1111 34.2668 47.3333V50.6667H29.6001ZM2.66675 32C2.66675 27.9555 3.43341 24.1555 4.96675 20.6C6.50008 17.0444 8.60008 13.9333 11.2667 11.2667C13.9334 8.59999 17.0445 6.49999 20.6001 4.96666C24.1556 3.43332 27.9556 2.66666 32.0001 2.66666C36.9779 2.66666 41.5556 3.79999 45.7334 6.06666C49.9112 8.33332 53.3334 11.3555 56.0001 15.1333V7.99999H61.3334V24H45.3334V18.6667H51.9334C49.8001 15.4667 46.989 12.8889 43.5001 10.9333C40.0112 8.97777 36.1779 7.99999 32.0001 7.99999C28.6667 7.99999 25.5445 8.63332 22.6334 9.89999C19.7223 11.1667 17.189 12.8778 15.0334 15.0333C12.8779 17.1889 11.1667 19.7222 9.90008 22.6333C8.63342 25.5444 8.00008 28.6667 8.00008 32H2.66675Z" fill="#461067"/>
</svg>
