<svg width="21" height="24" viewBox="0 0 21 24" fill="none" xmlns="http://www.w3.org/2000/svg">
<path d="M16.6151 19.425L14.8598 21.525L13.7034 20.125L15.438 18L13.7034 15.875L14.8598 14.475L16.6151 16.575L18.3703 14.475L19.5267 15.875L17.7921 18L19.5267 20.125L18.3703 21.525L16.6151 19.425ZM5.87695 22C5.18861 22 4.60352 21.7083 4.12168 21.125C3.63985 20.5417 3.39893 19.8333 3.39893 19V16H5.87695V2H18.2671V12.375C18.0055 12.2583 17.7371 12.1708 17.4617 12.1125C17.1864 12.0542 16.9042 12.025 16.6151 12.025V4H7.52897V16H11.9481C11.8517 16.3167 11.7795 16.6417 11.7313 16.975C11.6831 17.3083 11.659 17.65 11.659 18H5.05094V19C5.05094 19.2833 5.1301 19.5208 5.28842 19.7125C5.44674 19.9042 5.64292 20 5.87695 20H11.9481C12.0583 20.3833 12.1959 20.7417 12.3611 21.075C12.5263 21.4083 12.7191 21.7167 12.9393 22H5.87695ZM8.35498 9V7H15.7891V9H8.35498ZM8.35498 12V10H15.7891V12H8.35498Z" fill="#B8B8B8"/>
</svg>
