<svg width="64" height="64" viewBox="0 0 64 64" fill="none" xmlns="http://www.w3.org/2000/svg">
<path d="M37.3334 34.6667C35.1112 34.6667 33.2223 33.8889 31.6667 32.3333C30.1112 30.7778 29.3334 28.8889 29.3334 26.6667C29.3334 24.4444 30.1112 22.5555 31.6667 21C33.2223 19.4444 35.1112 18.6667 37.3334 18.6667C39.5556 18.6667 41.4445 19.4444 43.0001 21C44.5556 22.5555 45.3334 24.4444 45.3334 26.6667C45.3334 28.8889 44.5556 30.7778 43.0001 32.3333C41.4445 33.8889 39.5556 34.6667 37.3334 34.6667ZM18.6667 42.6667C17.2001 42.6667 15.9445 42.1444 14.9001 41.1C13.8556 40.0555 13.3334 38.8 13.3334 37.3333V16C13.3334 14.5333 13.8556 13.2778 14.9001 12.2333C15.9445 11.1889 17.2001 10.6667 18.6667 10.6667H56.0001C57.4668 10.6667 58.7223 11.1889 59.7668 12.2333C60.8112 13.2778 61.3334 14.5333 61.3334 16V37.3333C61.3334 38.8 60.8112 40.0555 59.7668 41.1C58.7223 42.1444 57.4668 42.6667 56.0001 42.6667H18.6667ZM24.0001 37.3333H50.6668C50.6668 35.8667 51.189 34.6111 52.2334 33.5667C53.2779 32.5222 54.5334 32 56.0001 32V21.3333C54.5334 21.3333 53.2779 20.8111 52.2334 19.7667C51.189 18.7222 50.6668 17.4667 50.6668 16H24.0001C24.0001 17.4667 23.4779 18.7222 22.4334 19.7667C21.389 20.8111 20.1334 21.3333 18.6667 21.3333V32C20.1334 32 21.389 32.5222 22.4334 33.5667C23.4779 34.6111 24.0001 35.8667 24.0001 37.3333ZM53.3334 53.3333H8.00008C6.53341 53.3333 5.27786 52.8111 4.23341 51.7667C3.18897 50.7222 2.66675 49.4667 2.66675 48V18.6667H8.00008V48H53.3334V53.3333Z" fill="#461067"/>
</svg>
