<svg width="128" height="128" viewBox="0 0 128 128" fill="none" xmlns="http://www.w3.org/2000/svg">
<path d="M33.7664 101.427H18.1504C17.8432 101.427 17.6128 101.197 17.6128 100.89V97.6384C17.6128 97.3312 17.8432 97.1008 18.1504 97.1008H33.7664C34.0736 97.1008 34.304 97.3312 34.304 97.6384V100.89C34.304 101.197 34.048 101.427 33.7664 101.427Z" fill="#FFBC0E"/>
<path d="M33.3824 101.862H18.5088C17.7664 101.862 17.1776 101.274 17.1776 100.531V98.0224C17.1776 97.28 17.7664 96.6912 18.5088 96.6912H33.3824C34.1248 96.6912 34.7136 97.28 34.7136 98.0224V100.531C34.7136 101.248 34.1248 101.862 33.3824 101.862ZM18.5088 97.536C18.2528 97.536 18.0224 97.7408 18.0224 98.0224V100.531C18.0224 100.787 18.2272 101.018 18.5088 101.018H33.3824C33.6384 101.018 33.8688 100.813 33.8688 100.531V98.0224C33.8688 97.7664 33.664 97.536 33.3824 97.536H18.5088Z" fill="#581D7C"/>
<path d="M35.5328 97.1008H19.9168C19.6096 97.1008 19.3792 96.8704 19.3792 96.5632V93.312C19.3792 93.0048 19.6096 92.7744 19.9168 92.7744H35.5328C35.84 92.7744 36.0704 93.0048 36.0704 93.312V96.5632C36.0704 96.8704 35.84 97.1008 35.5328 97.1008Z" fill="#FFBC0E"/>
<path d="M35.1744 97.536H20.3008C19.5584 97.536 18.944 96.9472 18.944 96.2048V93.696C18.944 92.9536 19.5328 92.3648 20.2752 92.3648H35.1488C35.8912 92.3648 36.48 92.9536 36.5056 93.696V96.2048C36.5056 96.9472 35.9168 97.536 35.1744 97.536ZM20.3008 93.2096C20.0448 93.2096 19.8144 93.4144 19.8144 93.696V96.2048C19.8144 96.4608 20.0192 96.6912 20.3008 96.6912H35.1744C35.4304 96.6912 35.6608 96.4864 35.6608 96.2048V93.696C35.6608 93.44 35.456 93.2096 35.1744 93.2096H20.3008Z" fill="#581D7C"/>
<path d="M37.3504 92.7744H21.7344C21.4272 92.7744 21.1968 92.544 21.1968 92.2368V88.9856C21.1968 88.6784 21.4272 88.448 21.7344 88.448H37.3504C37.6576 88.448 37.888 88.6784 37.888 88.9856V92.2368C37.888 92.544 37.6576 92.7744 37.3504 92.7744Z" fill="#FFBC0E"/>
<path d="M36.992 93.2096H22.1184C21.376 93.2096 20.7872 92.6208 20.7872 91.8784V89.3696C20.7872 88.6272 21.376 88.0384 22.1184 88.0384H36.992C37.7344 88.0384 38.3232 88.6272 38.3232 89.3696V91.8784C38.3232 92.6208 37.7344 93.2096 36.992 93.2096ZM22.1184 88.8832C21.8624 88.8832 21.632 89.088 21.632 89.3696V91.8784C21.632 92.1344 21.8368 92.3648 22.1184 92.3648H36.992C37.248 92.3648 37.4784 92.16 37.4784 91.8784V89.3696C37.4784 89.1136 37.2736 88.8832 36.992 88.8832H22.1184Z" fill="#581D7C"/>
<path d="M31.5648 88.4736H15.9488C15.6416 88.4736 15.4112 88.2432 15.4112 87.936V84.6848C15.4112 84.3776 15.6416 84.1472 15.9488 84.1472H31.5648C31.872 84.1472 32.1024 84.3776 32.1024 84.6848V87.936C32.1024 88.2176 31.872 88.4736 31.5648 88.4736Z" fill="#FFBC0E"/>
<path d="M31.2064 88.8832H16.3328C15.5904 88.8832 15.0016 88.2944 15.0016 87.552V85.0432C15.0016 84.3008 15.616 83.712 16.3328 83.712H31.2064C31.9488 83.712 32.5376 84.3008 32.5376 85.0432V87.552C32.5376 88.2944 31.9488 88.8832 31.2064 88.8832ZM16.3328 84.5824C16.0768 84.5824 15.8464 84.7872 15.8464 85.0688V87.5776C15.8464 87.8336 16.0512 88.064 16.3328 88.064H31.2064C31.4624 88.064 31.6928 87.8592 31.6928 87.5776V85.0688C31.6928 84.8128 31.488 84.5824 31.2064 84.5824H16.3328Z" fill="#581D7C"/>
<path d="M33.7664 84.1472H18.1504C17.8432 84.1472 17.6128 83.9168 17.6128 83.6096V80.3584C17.6128 80.0512 17.8432 79.8208 18.1504 79.8208H33.7664C34.0736 79.8208 34.304 80.0512 34.304 80.3584V83.6096C34.304 83.8912 34.048 84.1472 33.7664 84.1472Z" fill="#FFBC0E"/>
<path d="M33.3824 84.5824H18.5088C17.7664 84.5824 17.1776 83.9936 17.1776 83.2512V80.7424C17.1776 80 17.7664 79.4112 18.5088 79.4112H33.3824C34.1248 79.4112 34.7136 80 34.7136 80.7424V83.2512C34.7136 83.968 34.1248 84.5824 33.3824 84.5824ZM18.5088 80.256C18.2528 80.256 18.0224 80.4608 18.0224 80.7424V83.2512C18.0224 83.5072 18.2272 83.7376 18.5088 83.7376H33.3824C33.6384 83.7376 33.8688 83.5328 33.8688 83.2512V80.7424C33.8688 80.4864 33.664 80.256 33.3824 80.256H18.5088Z" fill="#581D7C"/>
<path d="M36.1216 65.8432C34.304 65.8432 31.488 65.5104 29.4912 63.744C29.2096 63.488 28.9792 63.2064 28.7744 62.8736C27.6224 62.72 26.1888 62.1312 24.6272 60.5184C24.4736 60.3392 24.4992 60.0576 24.6784 59.904C24.832 59.7504 25.088 59.776 25.2416 59.904C26.2656 60.9536 27.3152 61.6448 28.3648 61.9008C28.1088 61.0048 28.0832 60.0832 28.288 59.1616C28.5696 57.7536 29.312 56.7552 30.2592 56.448C30.8224 56.2688 31.6928 56.2432 32.768 57.216C33.4848 57.8816 33.792 58.88 33.536 59.8272C33.152 61.2608 32.0256 62.3616 30.592 62.7456C30.3616 62.8224 30.1056 62.848 29.8752 62.8736C29.952 62.9504 30.0032 63.0272 30.08 63.0784C32.896 65.5616 37.7856 64.8448 37.8368 64.8448C38.0672 64.8192 38.2976 64.9728 38.3232 65.2032C38.3488 65.4336 38.1952 65.664 37.9648 65.6896C37.3504 65.8176 36.736 65.8688 36.1216 65.8432ZM29.3376 62.08C29.696 62.08 30.0288 62.0544 30.3616 61.952C31.488 61.6704 32.384 60.8 32.6912 59.6736C32.8704 59.0336 32.6656 58.3424 32.1792 57.8816C31.5648 57.344 31.0016 57.1392 30.5152 57.2928C29.8752 57.4976 29.3632 58.2912 29.1328 59.3664C28.9536 60.2624 29.0048 61.2096 29.3376 62.08Z" fill="#581D7C"/>
<path d="M88.3456 52.0192C88.3456 52.0192 99.968 43.8016 99.6352 47.488C99.3024 51.1744 96.7168 58.7008 96.7168 58.7008" fill="#D298F5"/>
<path d="M96.7168 59.1104C96.6656 59.1104 96.6144 59.1104 96.5888 59.0848C96.3584 59.008 96.256 58.752 96.3328 58.5472C96.3584 58.4704 98.9184 51.0208 99.2256 47.4368C99.2512 47.104 99.1488 47.0528 99.1233 47.0272C98.0992 46.4384 92.9792 49.28 88.6272 52.3776C88.448 52.5312 88.1664 52.5056 88.0128 52.3264C87.8592 52.1472 87.8848 51.8656 88.064 51.712C88.0896 51.6864 88.0896 51.6864 88.1152 51.6864C89.6768 50.5856 97.536 45.1584 99.5328 46.2848C99.8144 46.4384 100.147 46.7968 100.07 47.5136C99.7376 51.2 97.2288 58.5216 97.1264 58.8288C97.0752 59.008 96.9216 59.136 96.7168 59.1104Z" fill="#581D7C"/>
<path d="M80.2816 101.427H84.096C85.5808 101.427 86.8352 100.326 87.04 98.8416L88.5504 87.7312H75.8016L77.312 98.8416C77.5168 100.326 78.7968 101.427 80.2816 101.427Z" fill="#D298F5"/>
<path d="M84.096 101.862H80.2816C78.5664 101.862 77.1328 100.608 76.9024 98.9184L75.392 87.808C75.3664 87.68 75.4176 87.552 75.4944 87.4752C75.5712 87.3728 75.6992 87.3216 75.8272 87.3216H88.576C88.704 87.3216 88.832 87.3728 88.9088 87.4752C88.9856 87.5776 89.0368 87.68 89.0112 87.808L87.5008 98.9184C87.2192 100.608 85.7856 101.862 84.096 101.862ZM76.288 88.1664L77.7472 98.7904C77.9264 100.045 79.0016 100.992 80.2816 100.992H84.096C85.376 100.992 86.4512 100.045 86.6304 98.7904L88.0896 88.1664H76.288Z" fill="#581D7C"/>
<path d="M50.1248 101.427H53.9392C55.424 101.427 56.704 100.326 56.8832 98.8416L58.3936 87.7312H45.6448L47.1552 98.8416C47.3856 100.326 48.64 101.427 50.1248 101.427Z" fill="#D298F5"/>
<path d="M53.9392 101.862H50.1248C48.4096 101.862 46.976 100.608 46.7456 98.9184L45.2352 87.808C45.2096 87.5776 45.3632 87.3472 45.6192 87.3216C45.6448 87.3216 45.6448 87.3216 45.6704 87.3216H58.4192C58.6496 87.3216 58.8544 87.5264 58.8544 87.7568C58.8544 87.7824 58.8544 87.7824 58.8544 87.808L57.344 98.9184C57.088 100.608 55.6288 101.862 53.9392 101.862ZM46.1568 88.1664L47.616 98.7904C47.7952 100.045 48.8704 100.992 50.1504 100.992H53.9648C55.2448 100.992 56.32 100.045 56.4992 98.7904L57.9584 88.1664H46.1568Z" fill="#581D7C"/>
<path d="M56.7296 46.9504H76.8C89.5232 46.9504 99.84 57.2672 99.84 69.9904V71.552C99.84 81.536 93.4144 90.3936 83.9168 93.4656L83.1744 98.8672C82.9696 100.352 81.7152 101.453 80.2304 101.453H76.4416C74.9568 101.453 73.7024 100.352 73.4976 98.8672L72.9088 94.592H56.7552C55.7056 94.592 54.656 94.5152 53.6064 94.3616L52.992 98.8416C52.7872 100.326 51.5328 101.427 50.048 101.427H46.2336C44.7488 101.427 43.4944 100.326 43.2896 98.8416L41.9584 89.1904C36.736 84.8128 33.7152 78.3616 33.7152 71.552V69.9904C33.7152 57.2672 44.0064 46.9504 56.7296 46.9504Z" fill="#D298F5"/>
<path d="M80.2304 101.862H76.416C74.7008 101.862 73.2672 100.608 73.0368 98.9184L72.4992 95.0272H56.7296C55.808 95.0272 54.8608 94.976 53.9392 94.848L53.376 98.9184C53.1456 100.608 51.6864 101.862 49.9968 101.862H46.1824C44.4672 101.862 43.0336 100.608 42.8032 98.9184L41.4976 89.4208C36.2496 84.9664 33.2288 78.4384 33.2288 71.552V69.9904C33.2544 57.0368 43.7504 46.5408 56.704 46.5152H76.8C89.7536 46.5408 100.25 57.0368 100.275 69.9904V71.552C100.301 81.6384 93.8496 90.5984 84.3008 93.7984L83.6096 98.9184C83.3536 100.582 81.92 101.837 80.2304 101.862ZM53.5808 93.9264H53.632C54.656 94.08 55.68 94.1312 56.7296 94.1312H72.8832C73.088 94.1312 73.2928 94.2848 73.3184 94.5152L73.9072 98.7904C74.0864 100.045 75.1616 100.992 76.4416 100.992H80.256C81.536 100.992 82.6112 100.045 82.7904 98.7904L83.5328 93.4144C83.5584 93.2608 83.6608 93.1072 83.8144 93.056C93.1584 90.0608 99.456 81.3568 99.456 71.552V69.9904C99.4304 57.5232 89.3184 47.4112 76.8256 47.3856H56.7552C44.288 47.3856 34.1504 57.5232 34.1504 69.9904V71.552C34.1504 78.2336 37.0944 84.5824 42.24 88.8832C42.3168 88.96 42.368 89.0368 42.3936 89.1648L43.6992 98.816C43.8784 100.07 44.9536 101.018 46.2336 101.018H50.048C51.328 101.018 52.4032 100.07 52.5824 98.816L53.1968 94.336C53.2224 94.2336 53.2736 94.1312 53.3504 94.0544C53.4016 93.952 53.4784 93.9264 53.5808 93.9264Z" fill="#581D7C"/>
<path d="M96.9216 81.8176H87.8336C84.4288 81.8176 81.664 79.0528 81.664 75.648V75.5456C81.664 72.1408 84.4288 69.376 87.8336 69.376H96.9216C100.326 69.376 103.091 72.1408 103.091 75.5456V75.648C103.091 79.0784 100.326 81.8176 96.9216 81.8176Z" fill="#D298F5"/>
<path d="M97.2544 82.2528H87.552C84.096 82.2528 81.28 79.4368 81.28 75.9808V75.2384C81.28 71.7824 84.096 68.9664 87.552 68.9664H97.2544C100.71 68.9664 103.526 71.7824 103.526 75.2384V75.9808C103.526 79.4368 100.71 82.2528 97.2544 82.2528ZM87.5264 69.8112C84.5312 69.8112 82.1248 72.2432 82.1248 75.2384V75.9808C82.1248 78.976 84.5568 81.3824 87.5264 81.3824H97.2288C100.224 81.3824 102.63 78.9504 102.63 75.9808V75.2384C102.63 72.2432 100.198 69.8368 97.2032 69.8112H87.5264Z" fill="#581D7C"/>
<path d="M83.968 52.8384C83.968 52.8384 80.1024 42.6752 78.08 42.6752C76.0576 42.6752 73.0368 55.6544 73.0368 55.6544" fill="#D298F5"/>
<path d="M73.0368 56.0896C73.0112 56.0896 72.96 56.0896 72.9344 56.0896C72.704 56.0384 72.576 55.808 72.6272 55.5776C72.6272 55.552 73.3952 52.2752 74.3936 49.0752C76.2624 43.0592 77.3376 42.2912 78.08 42.2912C80.2304 42.2912 83.4304 50.2784 84.352 52.736C84.4288 52.9664 84.3264 53.1968 84.096 53.2992C83.8656 53.376 83.6352 53.2736 83.5328 53.0432C81.7152 48.2816 79.104 43.1616 78.0544 43.1616C77.2608 43.1616 75.2128 48.2304 73.4464 55.808C73.4208 55.9616 73.2416 56.0896 73.0368 56.0896Z" fill="#581D7C"/>
<path d="M95.7952 77.3888C96.7849 77.3888 97.5872 76.5865 97.5872 75.5968C97.5872 74.6071 96.7849 73.8048 95.7952 73.8048C94.8055 73.8048 94.0032 74.6071 94.0032 75.5968C94.0032 76.5865 94.8055 77.3888 95.7952 77.3888Z" fill="#D298F5"/>
<path d="M95.7952 77.824C94.5664 77.824 93.568 76.8256 93.568 75.5968C93.568 74.368 94.5664 73.3696 95.7952 73.3696C97.024 73.3696 98.0224 74.368 98.0224 75.5968C98.0224 76.8256 97.024 77.824 95.7952 77.824ZM95.7952 74.24C95.0528 74.24 94.4384 74.8544 94.4384 75.5968C94.4384 76.3392 95.0528 76.9536 95.7952 76.9536C96.5376 76.9536 97.152 76.3392 97.152 75.5968C97.152 74.8544 96.5376 74.24 95.7952 74.24Z" fill="#581D7C"/>
<path d="M88.9856 77.3888C89.9753 77.3888 90.7776 76.5865 90.7776 75.5968C90.7776 74.6071 89.9753 73.8048 88.9856 73.8048C87.9959 73.8048 87.1936 74.6071 87.1936 75.5968C87.1936 76.5865 87.9959 77.3888 88.9856 77.3888Z" fill="#D298F5"/>
<path d="M88.9856 77.824C87.7568 77.824 86.7584 76.8256 86.7584 75.5968C86.7584 74.368 87.7568 73.3696 88.9856 73.3696C90.2144 73.3696 91.2128 74.368 91.2128 75.5968C91.2128 76.8256 90.2144 77.824 88.9856 77.824ZM88.9856 74.24C88.2432 74.24 87.6288 74.8544 87.6288 75.5968C87.6288 76.3392 88.2432 76.9536 88.9856 76.9536C89.728 76.9536 90.3424 76.3392 90.3424 75.5968C90.3424 74.8544 89.728 74.24 88.9856 74.24Z" fill="#581D7C"/>
<path d="M51.4304 50.304C51.4304 50.9184 51.9424 51.4304 52.5568 51.4304H69.632C70.2464 51.4304 70.7584 50.9184 70.7584 50.304C70.7584 49.7152 70.2976 49.2288 69.7088 49.1776C69.6832 49.1776 69.6576 49.1776 69.632 49.1776H52.5568C52.5312 49.1776 52.5056 49.1776 52.48 49.1776C51.8912 49.2288 51.4304 49.7152 51.4304 50.304Z" fill="#581D7C"/>
<path d="M69.632 51.84H52.5568C51.712 51.84 51.0208 51.1232 51.0208 50.2784C51.0208 49.4848 51.6608 48.8192 52.4544 48.7424C52.48 48.7424 52.5312 48.7424 52.5568 48.7424H69.632C69.6832 48.7424 69.7344 48.7424 69.76 48.7424C70.1184 48.768 70.4512 48.9216 70.7072 49.2032C71.3216 49.792 71.3472 50.7648 70.7584 51.3792C70.4768 51.6864 70.0672 51.8656 69.632 51.84ZM52.5568 49.6128H52.5056C52.1216 49.6384 51.84 49.9456 51.84 50.3296C51.84 50.7136 52.1728 50.9952 52.5568 50.9952H69.632C70.016 50.9952 70.3232 50.688 70.3232 50.304C70.3232 50.1248 70.2464 49.9456 70.1184 49.8176C69.9904 49.6896 69.8368 49.6128 69.6832 49.6128H69.632H52.5568Z" fill="#581D7C"/>
<path d="M94.8992 66.2528C95.3941 66.2528 95.7952 65.4161 95.7952 64.384C95.7952 63.3519 95.3941 62.5152 94.8992 62.5152C94.4044 62.5152 94.0032 63.3519 94.0032 64.384C94.0032 65.4161 94.4044 66.2528 94.8992 66.2528Z" fill="#581D7C"/>
<path d="M87.1936 66.2528C87.6885 66.2528 88.0896 65.4161 88.0896 64.384C88.0896 63.3519 87.6885 62.5152 87.1936 62.5152C86.6988 62.5152 86.2976 63.3519 86.2976 64.384C86.2976 65.4161 86.6988 66.2528 87.1936 66.2528Z" fill="#581D7C"/>
<path d="M36.8384 74.624C36.6336 74.624 36.4544 74.4704 36.4288 74.2656C34.0992 61.9264 43.5712 55.3728 43.6736 55.296C43.8528 55.1424 44.1344 55.1936 44.288 55.3728C44.4416 55.552 44.3904 55.8336 44.2112 55.9872L44.1856 56.0128C44.0832 56.064 35.0976 62.336 37.2992 74.112C37.3504 74.3424 37.1968 74.5728 36.9664 74.624C36.9664 74.624 36.9664 74.624 36.9408 74.624C36.8896 74.624 36.864 74.624 36.8384 74.624Z" fill="white"/>
<path d="M79.3731 35.1633C80.0594 30.9346 77.1877 26.9503 72.959 26.264C68.7303 25.5777 64.7459 28.4494 64.0596 32.6781C63.3733 36.9068 66.245 40.8912 70.4737 41.5774C74.7024 42.2637 78.6868 39.392 79.3731 35.1633Z" fill="#FFBC0E"/>
<path d="M71.7312 42.1376C67.2 42.1376 63.5136 38.4768 63.5136 33.9456C63.5136 29.4144 67.1744 25.728 71.7056 25.728C76.2368 25.728 79.9232 29.3888 79.9232 33.92C79.9232 37.248 77.9264 40.2688 74.8288 41.5232C73.8304 41.9072 72.7808 42.112 71.7312 42.1376ZM71.7312 26.5984C68.7872 26.5984 66.1248 28.3648 64.9728 31.104C63.4112 34.8416 65.1776 39.1168 68.8896 40.6784C72.6272 42.24 76.9024 40.4736 78.464 36.7616C80.0256 33.0496 78.2592 28.7488 74.5216 27.1872C73.6512 26.8032 72.6784 26.5984 71.7312 26.5984Z" fill="#581D7C"/>
<path d="M69.9648 28.0832C70.1184 28.4672 70.272 28.8256 70.4256 29.2096C70.4512 29.2864 70.4768 29.2864 70.5536 29.2864C71.1424 29.1584 71.7568 29.184 72.3456 29.3632C72.96 29.5424 73.472 29.952 73.8048 30.4896C73.9072 30.6432 73.984 30.7968 74.0608 30.9504L72.32 31.6672C72.2176 31.4112 72.0128 31.2064 71.7568 31.0528C71.552 30.976 71.3472 30.8992 71.1168 30.848L71.0912 30.8736L71.9872 33.024L72.192 32.9984C72.704 32.896 73.216 32.8448 73.728 32.8704C74.5216 32.8704 75.2384 33.3312 75.5968 34.0224C75.9808 34.6368 76.0832 35.3792 75.9296 36.096C75.8016 36.6848 75.4944 37.1968 75.0336 37.5808C74.752 37.8368 74.4704 38.0416 74.1632 38.272L74.5216 39.1168L72.9344 39.7824L72.576 38.912C72.2176 38.9632 71.8848 39.0144 71.552 39.04C70.8864 39.0912 70.2464 38.9376 69.6832 38.5792C69.2224 38.2464 68.864 37.8112 68.6592 37.2736L70.3488 36.5568C70.6304 37.1456 71.2704 37.504 71.9104 37.376C71.5776 36.608 71.2704 35.84 70.9376 35.072C70.5792 35.1232 70.2208 35.1744 69.8624 35.2C69.4272 35.2512 68.992 35.2 68.5824 35.0464C68.1728 34.8672 67.8144 34.5856 67.584 34.2016C67.2768 33.7408 67.0976 33.2032 67.072 32.6656C67.0464 31.872 67.3536 31.104 67.9424 30.5664C68.1984 30.3616 68.4544 30.1568 68.7104 29.9776L68.8128 29.9264L68.3264 28.7744L69.9648 28.0832ZM73.6 36.736C73.856 36.5824 74.0608 36.3776 74.1888 36.1216C74.4192 35.6608 74.2656 35.1232 73.8304 34.8416C73.4976 34.6624 73.1392 34.7392 72.7808 34.7392L73.6 36.736ZM69.4784 31.4112C69.2992 31.5904 69.1456 31.7696 68.992 31.9744C68.736 32.4096 68.864 32.9728 69.2992 33.2544C69.3504 33.28 69.376 33.3056 69.4272 33.3312C69.7088 33.408 69.9904 33.408 70.272 33.3568L69.4784 31.4112Z" fill="white"/>
<path d="M68.224 50.5344C68.5056 49.8944 68.7104 49.2288 68.8128 48.5376C68.8896 48.128 68.9152 47.7184 68.9152 47.3344C68.8384 43.0592 65.3056 39.6288 61.0048 39.7056C56.832 39.7824 53.4528 43.136 53.376 47.3344C53.376 47.744 53.4016 48.1536 53.4784 48.5376C53.5552 48.9216 53.632 49.3056 53.76 49.664C53.8624 49.9456 53.9648 50.2528 54.0928 50.5088" fill="#FFBC0E"/>
<path d="M68.224 50.944C68.1728 50.944 68.096 50.944 68.0448 50.9184C67.84 50.816 67.7376 50.56 67.8144 50.3552C67.9424 50.0992 68.0448 49.8176 68.1216 49.536C68.224 49.1776 68.3264 48.8192 68.3776 48.4608C69.0176 44.4672 66.304 40.704 62.3104 40.064C58.3168 39.424 54.5536 42.1376 53.9136 46.1312C53.8624 46.5152 53.8112 46.8992 53.8112 47.3088C53.8112 48.0512 53.9136 48.8192 54.144 49.536C54.2208 49.8176 54.3488 50.0736 54.4512 50.3552C54.5536 50.56 54.4768 50.816 54.2464 50.9184C54.0416 51.0208 53.7856 50.944 53.6832 50.7136V50.688C53.376 50.0224 53.1712 49.3056 53.0432 48.5888C52.3264 44.1344 55.3472 39.9104 59.8272 39.1936C64.3072 38.4768 68.5056 41.4976 69.2224 45.9776C69.2992 46.4128 69.3248 46.8736 69.3248 47.3088C69.3248 47.744 69.2992 48.1536 69.2224 48.5888C69.1456 48.9984 69.0688 49.408 68.9408 49.792C68.8384 50.0992 68.736 50.4064 68.5824 50.688C68.5312 50.8416 68.3776 50.944 68.224 50.944Z" fill="#581D7C"/>
<path d="M64.9728 48.9984C64.9472 48.8448 64.9216 48.6656 64.8704 48.512C64.6912 47.9232 64.256 47.4624 63.6928 47.2064C63.232 47.0016 62.72 46.848 62.208 46.7456L62.0032 46.6944V44.3648L62.0288 44.3392C62.208 44.4672 62.3872 44.6208 62.5408 44.7744C62.72 45.0048 62.8224 45.2608 62.8224 45.5424H64.6912C64.6656 45.3632 64.6656 45.184 64.6144 45.0048C64.512 44.3648 64.1792 43.8016 63.6928 43.392C63.232 43.008 62.6688 42.752 62.08 42.6496C62.0032 42.624 61.9776 42.5984 61.9776 42.5216C61.9776 42.112 61.9776 41.7024 61.9776 41.3184H60.2368V42.5728L60.1344 42.5984C59.8272 42.6752 59.52 42.752 59.2128 42.8544C58.4704 43.1104 57.856 43.6992 57.6 44.4672C57.4208 44.9792 57.3696 45.5424 57.4976 46.08C57.5744 46.5152 57.7792 46.9248 58.0864 47.232C58.4192 47.5392 58.8032 47.744 59.2128 47.872C59.5712 47.9744 59.904 48.0768 60.2624 48.1792V50.5344H62.0032V48.5632C62.336 48.6912 62.6944 48.768 62.9248 49.0496C63.0528 49.2288 63.1296 49.4336 63.104 49.664C63.0784 49.9456 62.976 50.2016 62.7712 50.3808C62.6944 50.432 62.6432 50.4832 62.5664 50.5344H64.7424C64.8704 50.2528 64.9216 49.9712 64.9472 49.6896C64.9984 49.4592 64.9984 49.2288 64.9728 48.9984ZM59.52 45.952C59.1616 45.5936 59.1616 45.0048 59.52 44.6464C59.5456 44.6208 59.5968 44.5696 59.648 44.544C59.8528 44.416 60.0832 44.3136 60.3136 44.2112V46.3104C60.0064 46.2336 59.7504 46.1312 59.52 45.952ZM59.2128 49.664C59.1872 49.5616 59.1616 49.4336 59.136 49.3056H57.2928C57.2928 49.4336 57.2928 49.536 57.3184 49.664C57.344 49.9712 57.4208 50.2528 57.5232 50.5088H59.8528C59.5456 50.3296 59.3152 50.0224 59.2128 49.664Z" fill="white"/>
<path d="M108.544 101.427H92.928C92.6208 101.427 92.3904 101.197 92.3904 100.89V97.6384C92.3904 97.3312 92.6208 97.1008 92.928 97.1008H108.544C108.851 97.1008 109.082 97.3312 109.082 97.6384V100.89C109.082 101.197 108.851 101.427 108.544 101.427Z" fill="#FFBC0E"/>
<path d="M108.16 101.862H93.2864C92.544 101.862 91.9552 101.274 91.9552 100.531V98.0224C91.9552 97.28 92.544 96.6912 93.2864 96.6912H108.16C108.902 96.6912 109.491 97.28 109.491 98.0224V100.531C109.517 101.248 108.902 101.862 108.16 101.862ZM93.312 97.536C93.056 97.536 92.8256 97.7408 92.8256 98.0224V100.531C92.8256 100.787 93.0304 101.018 93.312 101.018H108.186C108.442 101.018 108.672 100.813 108.672 100.531V98.0224C108.672 97.7664 108.467 97.536 108.186 97.536H93.312Z" fill="#581D7C"/>
<path d="M110.874 97.1008H95.2576C94.9504 97.1008 94.72 96.8704 94.72 96.5632V93.312C94.72 93.0048 94.9504 92.7744 95.2576 92.7744H110.874C111.181 92.7744 111.411 93.0048 111.411 93.312V96.5632C111.411 96.8704 111.181 97.1008 110.874 97.1008Z" fill="#FFBC0E"/>
<path d="M110.49 97.536H95.616C94.8736 97.536 94.2848 96.9472 94.2848 96.2048V93.696C94.2848 92.9536 94.8736 92.3648 95.616 92.3648H110.49C111.232 92.3648 111.821 92.9536 111.821 93.696V96.2048C111.846 96.9472 111.232 97.536 110.49 97.536ZM95.6416 93.2096C95.3856 93.2096 95.1552 93.4144 95.1552 93.696V96.2048C95.1552 96.4608 95.36 96.6912 95.6416 96.6912H110.515C110.771 96.6912 111.002 96.4864 111.002 96.2048V93.696C111.002 93.44 110.797 93.2096 110.515 93.2096H95.6416Z" fill="#581D7C"/>
<path d="M115.021 101.862H12.9792C12.7488 101.862 12.544 101.683 12.544 101.427C12.544 101.171 12.7232 100.992 12.9792 100.992H115.046C115.277 100.992 115.482 101.171 115.482 101.427C115.456 101.658 115.277 101.862 115.021 101.862Z" fill="#581D7C"/>
</svg>
